<?xml version="1.0" encoding="UTF-8"?>
<svg version="1.1" xmlns="http://www.w3.org/2000/svg" width="512" height="512">
<path d="M0 0 C0.68663223 -0.00623996 1.37326447 -0.01247993 2.08070374 -0.01890898 C4.38097496 -0.03486111 6.68018972 -0.02222711 8.98046875 -0.00964355 C10.62972634 -0.01506373 12.27897909 -0.0221858 13.92822266 -0.03088379 C18.40757091 -0.04913268 22.886551 -0.04204323 27.36590576 -0.02936745 C32.05123901 -0.01924786 36.73654052 -0.02863023 41.421875 -0.03491211 C49.29042222 -0.04219156 57.15881932 -0.03259303 65.02734375 -0.0135498 C74.12742646 0.00821953 83.22715071 0.00116837 92.32722473 -0.02085543 C100.13710094 -0.03900097 107.94686917 -0.0415719 115.75675964 -0.03110075 C120.42269772 -0.02486116 125.08846725 -0.02404295 129.75439453 -0.0372467 C134.14085692 -0.04879232 138.52685669 -0.0408033 142.91326904 -0.01766968 C144.52414176 -0.01237565 146.13505333 -0.01390823 147.74591064 -0.02272034 C149.94311376 -0.03363283 152.13882949 -0.01996683 154.3359375 0 C156.18094849 0.00226215 156.18094849 0.00226215 158.06323242 0.00457001 C161.77168345 0.6058136 162.92407388 1.55025109 165.16796875 4.50793457 C166.30874532 7.93026429 166.26611992 10.59466675 166.23046875 14.19543457 C166.22144531 15.37492676 166.21242187 16.55441895 166.203125 17.76965332 C166.18572266 19.12510254 166.18572266 19.12510254 166.16796875 20.50793457 C166.84813049 20.49905212 167.52829224 20.49016968 168.22906494 20.48101807 C175.30155034 20.39259539 182.373879 20.33222107 189.44677734 20.28820801 C192.08714169 20.26807982 194.7274614 20.2407747 197.36767578 20.20617676 C201.16059376 20.15771407 204.95292291 20.13497738 208.74609375 20.11730957 C210.51971283 20.08634186 210.51971283 20.08634186 212.3291626 20.05474854 C213.43000183 20.05444641 214.53084106 20.05414429 215.66503906 20.05383301 C216.63322571 20.04495056 217.60141235 20.03606812 218.59893799 20.0269165 C221.92924809 20.65047436 223.10499896 21.87074221 225.16796875 24.50793457 C225.71386719 27.53234863 225.71386719 27.53234863 225.77734375 31.02355957 C225.80957031 32.2739502 225.84179688 33.52434082 225.875 34.81262207 C225.88917969 36.1145752 225.90335937 37.41652832 225.91796875 38.75793457 C225.96244141 40.73406738 225.96244141 40.73406738 226.0078125 42.75012207 C226.07852263 46.002788 226.13121661 49.2547365 226.16796875 52.50793457 C226.88734619 52.1680249 227.60672363 51.82811523 228.34790039 51.47790527 C233.37052797 49.1424738 238.18693632 46.95265173 243.60546875 45.69543457 C245.05759766 45.3454541 245.05759766 45.3454541 246.5390625 44.98840332 C249.16796875 44.50793457 249.16796875 44.50793457 253.16796875 44.50793457 C253.16796875 41.86793457 253.16796875 39.22793457 253.16796875 36.50793457 C251.93046875 36.59043457 250.69296875 36.67293457 249.41796875 36.75793457 C246.40544799 36.73656917 245.32448058 36.60184167 242.66796875 35.00793457 C240.86503784 32.00304973 240.69051998 29.95121339 240.63671875 26.50793457 C241.42869801 23.5263656 242.7535055 22.41183336 245.16796875 20.50793457 C248.49609375 19.99035645 248.49609375 19.99035645 252.41796875 19.97668457 C253.1130957 19.97285767 253.80822266 19.96903076 254.52441406 19.96508789 C255.99024916 19.96237277 257.45613303 19.96970622 258.921875 19.9864502 C261.1612585 20.00787039 263.39743462 19.98664014 265.63671875 19.96105957 C267.06380914 19.96370292 268.49089754 19.96882807 269.91796875 19.97668457 C271.85929688 19.98345215 271.85929688 19.98345215 273.83984375 19.99035645 C277.67716854 20.58712351 278.85867826 21.45076508 281.16796875 24.50793457 C281.89788344 27.2558487 281.71483094 29.72805178 281.16796875 32.50793457 C279.66796875 35.00793457 279.66796875 35.00793457 277.16796875 36.50793457 C274.40955301 36.8237837 271.96195421 36.69420027 269.16796875 36.50793457 C269.16796875 39.14793457 269.16796875 41.78793457 269.16796875 44.50793457 C270.40546875 44.59043457 271.64296875 44.67293457 272.91796875 44.75793457 C287.07505433 46.39484759 300.28831964 53.53468923 311.16796875 62.50793457 C311.48169424 58.7420032 311.48169424 58.7420032 310.16796875 56.63293457 C308.77217881 53.66688094 308.70448768 51.75230205 309.16796875 48.50793457 C311.69184256 44.98980744 313.24225562 43.71753 317.48046875 42.75793457 C322.87033129 43.8541778 325.36222406 46.67114791 329.16796875 50.50793457 C330.28809834 51.60527379 331.40927239 52.70154744 332.53125 53.79699707 C343.01200585 64.10426845 343.01200585 64.10426845 343.48046875 68.32043457 C343.08442771 72.36005313 342.17955817 73.80522612 339.16796875 76.50793457 C335.78093421 77.59434188 333.50637402 78.07037725 330.16015625 76.66418457 C328.44739773 75.69339027 326.80092413 74.60768003 325.16796875 73.50793457 C323.81085906 75.09777688 323.81085906 75.09777688 323.16796875 77.50793457 C324.11419808 80.00718155 325.1100885 82.16688058 326.35546875 84.50793457 C334.69461415 101.5098583 336.40204922 121.82385638 330.546875 140.06262207 C322.87141351 159.24040403 310.00023055 174.6533907 290.81713867 183.20080566 C273.29510237 190.63439682 252.077825 191.5501596 234.16796875 184.50793457 C231.52796875 183.18793457 228.88796875 181.86793457 226.16796875 180.50793457 C225.83796875 194.03793457 225.50796875 207.56793457 225.16796875 221.50793457 C217.24796875 225.46793457 217.24796875 225.46793457 209.16796875 229.50793457 C209.1743335 227.64137207 209.18069824 225.77480957 209.18725586 223.85168457 C209.20014935 217.66079255 209.18068177 211.47065159 209.13950253 205.27989197 C209.11572221 201.52896687 209.10463711 197.77892723 209.12329102 194.0279541 C209.14083977 190.40285011 209.12409227 186.77933079 209.08429146 183.15441895 C209.07504985 181.77667976 209.07783814 180.39880186 209.09327507 179.02111816 C209.24754186 169.67409768 209.24754186 169.67409768 204.75488281 161.81872559 C203.56164443 160.71253447 202.36620584 159.60870907 201.16796875 158.50793457 C189.20570579 141.47331329 186.38824819 120.42900543 189.79296875 100.16027832 C191.90179998 91.20716001 196.00895638 79.33671945 202.95678711 72.83361816 C207.51476957 68.55175375 208.67203006 65.44273575 209.0703125 59.16418457 C209.12276968 56.44591543 209.12644271 53.72662892 209.10546875 51.00793457 C209.12609375 46.22293457 209.14671875 41.43793457 209.16796875 36.50793457 C194.97796875 36.50793457 180.78796875 36.50793457 166.16796875 36.50793457 C166.16796875 40.79793457 166.16796875 45.08793457 166.16796875 49.50793457 C164.14756059 55.01813865 164.14756059 55.01813865 161.16796875 56.50793457 C158.9726656 56.61101012 156.77415497 56.6474814 154.57644653 56.65510559 C153.54906146 56.66062062 153.54906146 56.66062062 152.50092113 56.66624707 C150.19477978 56.67730264 147.88868345 56.68113088 145.58251953 56.68493652 C143.93356177 56.69119967 142.28460542 56.69784634 140.63565063 56.70484924 C136.14804522 56.7222707 131.66045047 56.73281374 127.17281961 56.74105477 C124.37100825 56.74620163 121.56920022 56.75227744 118.7673912 56.7585659 C110.00657108 56.77761965 101.2457594 56.7918514 92.48492253 56.80017787 C82.36165328 56.80995738 72.23860228 56.83629469 62.11540997 56.87667876 C54.2971109 56.90680126 46.47887452 56.92164299 38.66051853 56.92495888 C33.98780512 56.92731346 29.31532482 56.9363267 24.64267349 56.96142006 C20.24808665 56.98463887 15.85388742 56.98895916 11.45925522 56.97865868 C9.84513818 56.97816172 8.23100246 56.98452911 6.61694336 56.99821472 C4.41531307 57.01583997 2.21508812 57.00887556 0.01345825 56.99568176 C-1.83544919 56.99926429 -1.83544919 56.99926429 -3.7217083 57.0029192 C-6.83203125 56.50793457 -6.83203125 56.50793457 -10.83203125 52.50793457 C-10.83203125 47.22793457 -10.83203125 41.94793457 -10.83203125 36.50793457 C-22.71203125 36.50793457 -34.59203125 36.50793457 -46.83203125 36.50793457 C-46.83203125 151.34793457 -46.83203125 266.18793457 -46.83203125 384.50793457 C18.83796875 384.50793457 84.50796875 384.50793457 152.16796875 384.50793457 C157.16796875 397.50793457 157.16796875 397.50793457 157.16796875 400.50793457 C129.07418235 400.60129631 100.98041913 400.67187377 72.88650894 400.71518326 C59.84258088 400.73582538 46.79874909 400.76397757 33.75488281 400.80969238 C22.38840159 400.84950955 11.02199007 400.87535537 -0.34455895 400.88428855 C-6.36539096 400.88951195 -12.38602349 400.90182325 -18.40679169 400.9308548 C-24.0702319 400.95794288 -29.73338989 400.9663929 -35.39688873 400.9603653 C-37.47864819 400.96146849 -39.5604168 400.96946146 -41.64212036 400.98475647 C-44.47870288 401.00458085 -47.31421188 400.99990131 -50.15081787 400.98895264 C-50.97961134 401.000604 -51.8084048 401.01225537 -52.66231322 401.02425981 C-56.03999915 400.98888193 -58.28250031 400.91510805 -61.04216743 398.87034011 C-63.36405722 395.80572411 -63.33319065 394.04196808 -63.33539581 390.21725464 C-63.3458268 388.91593409 -63.35625779 387.61461353 -63.36700487 386.27385902 C-63.35835629 384.8263286 -63.34932965 383.37880039 -63.33996582 381.93127441 C-63.34457302 380.3962412 -63.35092472 378.8612124 -63.3588748 377.32619286 C-63.37561631 373.10144774 -63.36730003 368.87706273 -63.35492992 364.65231609 C-63.34590139 360.09873161 -63.35983821 355.54521024 -63.37084961 350.99163818 C-63.38866296 342.06860199 -63.38478233 333.14570016 -63.37319905 324.22265863 C-63.36417606 316.97258556 -63.3629358 309.72255022 -63.36729431 302.47247314 C-63.36790724 301.44173561 -63.36852018 300.41099808 -63.36915168 299.34902608 C-63.37043055 297.25529113 -63.3717274 295.16155619 -63.37304205 293.06782126 C-63.3844561 273.42156926 -63.37132121 253.77539183 -63.34984058 234.12915206 C-63.33196886 217.26123491 -63.33507273 200.39342786 -63.35351562 183.5255127 C-63.37490778 163.95094552 -63.38335738 144.37644376 -63.37106657 124.80186653 C-63.36979233 122.7157097 -63.36853485 120.62955285 -63.36729431 118.543396 C-63.36667721 117.51688978 -63.36606011 116.49038356 -63.36542431 115.43277109 C-63.36196644 108.18899047 -63.36780915 100.94525125 -63.37721252 93.70147705 C-63.38841552 84.87717344 -63.38542834 76.0530122 -63.36408955 67.22872496 C-63.35355617 62.72392914 -63.34949607 58.21937094 -63.36268616 53.71457672 C-63.37456879 49.59408513 -63.36811633 45.47405236 -63.34677595 41.35360265 C-63.34229226 39.85972208 -63.34461557 38.36580309 -63.3542791 36.87194705 C-63.36637442 34.84752921 -63.3516227 32.82300344 -63.33539581 30.7986145 C-63.3347464 29.67225397 -63.33409699 28.54589344 -63.33342791 27.38540077 C-62.71846596 23.85619452 -61.62994577 22.67593761 -58.83203125 20.50793457 C-56.52874756 20.0269165 -56.52874756 20.0269165 -53.97167969 20.05383301 C-52.53063873 20.05428619 -52.53063873 20.05428619 -51.06048584 20.05474854 C-49.51654144 20.08571625 -49.51654144 20.08571625 -47.94140625 20.11730957 C-46.3517807 20.12579926 -46.3517807 20.12579926 -44.7300415 20.13446045 C-41.34691097 20.15684217 -37.96484141 20.20704359 -34.58203125 20.25793457 C-32.28777572 20.27799717 -29.99350358 20.29624836 -27.69921875 20.31262207 C-22.07646122 20.35671277 -16.45432204 20.42364321 -10.83203125 20.50793457 C-10.8784375 19.39934082 -10.92484375 18.29074707 -10.97265625 17.14855957 C-11.01018227 15.68504489 -11.04658154 14.22150102 -11.08203125 12.75793457 C-11.11554688 12.0283252 -11.1490625 11.29871582 -11.18359375 10.54699707 C-11.24415202 7.21629248 -11.21641789 5.04007001 -9.23461914 2.29651642 C-6.0172011 -0.09865735 -3.99300856 0.0048958 0 0 Z M6.16796875 16.50793457 C6.16796875 24.42793457 6.16796875 32.34793457 6.16796875 40.50793457 C53.35796875 40.50793457 100.54796875 40.50793457 149.16796875 40.50793457 C149.16796875 32.58793457 149.16796875 24.66793457 149.16796875 16.50793457 C101.97796875 16.50793457 54.78796875 16.50793457 6.16796875 16.50793457 Z M227.16796875 72.50793457 C226.46027344 73.00809082 225.75257813 73.50824707 225.0234375 74.02355957 C215.25520077 81.65318826 208.11512465 94.36077659 206.16796875 106.50793457 C204.61779854 123.19609951 207.1515247 136.76856442 217.16796875 150.50793457 C217.60625 151.14215332 218.04453125 151.77637207 218.49609375 152.42980957 C226.27466052 162.64503581 238.91003339 168.77188897 251.16796875 171.50793457 C267.86578372 172.92631956 281.43077763 170.52279003 295.16796875 160.50793457 C295.8021875 160.06965332 296.43640625 159.63137207 297.08984375 159.17980957 C307.30506999 151.4012428 313.43192315 138.76586993 316.16796875 126.50793457 C317.5832725 109.84639315 315.22042422 96.1904434 305.16796875 82.50793457 C304.6678125 81.80023926 304.16765625 81.09254395 303.65234375 80.36340332 C296.02271506 70.59516659 283.31512673 63.45509047 271.16796875 61.50793457 C254.51630607 59.96115507 240.85231501 62.45412915 227.16796875 72.50793457 Z " fill="#000000" transform="translate(86.83203125,23.4920654296875)"/>
<path d="M0 0 C3.26701612 2.66358727 6.39330111 5.45632415 9.50390625 8.30078125 C10.70273437 9.37585938 10.70273437 9.37585938 11.92578125 10.47265625 C23.25289034 21.15709249 31.22417267 34.17323423 37.50390625 48.30078125 C38.22707031 49.89986328 38.22707031 49.89986328 38.96484375 51.53125 C50.78051581 79.78144774 49.75735979 113.27799334 38.81640625 141.55078125 C32.90163585 155.93577959 24.97055595 167.85479591 14.50390625 179.30078125 C13.7871875 180.1 13.07046875 180.89921875 12.33203125 181.72265625 C1.64253838 193.05512614 -11.36968274 201.0066886 -25.49609375 207.30078125 C-26.55054688 207.78289062 -27.605 208.265 -28.69140625 208.76171875 C-56.86326923 220.65010083 -90.59211526 219.58413017 -118.80859375 208.61328125 C-133.15670956 202.68516729 -145.07138452 194.74797525 -156.49609375 184.30078125 C-157.2953125 183.5840625 -158.09453125 182.86734375 -158.91796875 182.12890625 C-170.24507784 171.44447001 -178.21636017 158.42832827 -184.49609375 144.30078125 C-184.97820312 143.23472656 -185.4603125 142.16867187 -185.95703125 141.0703125 C-197.77270331 112.82011476 -196.74954729 79.32356916 -185.80859375 51.05078125 C-179.89382335 36.66578291 -171.96274345 24.74676659 -161.49609375 13.30078125 C-160.779375 12.5015625 -160.06265625 11.70234375 -159.32421875 10.87890625 C-148.63472588 -0.45356364 -135.62250476 -8.4051261 -121.49609375 -14.69921875 C-120.44164062 -15.18132812 -119.3871875 -15.6634375 -118.30078125 -16.16015625 C-80.31158865 -32.19140121 -32.31783025 -25.47213687 0 0 Z M-135.49609375 13.30078125 C-136.98496094 14.43386719 -136.98496094 14.43386719 -138.50390625 15.58984375 C-159.45592896 32.11374851 -172.70285208 55.88704376 -176.49609375 82.30078125 C-177.40615764 97.6312782 -177.34934266 112.64618276 -172.49609375 127.30078125 C-172.11066406 128.46480469 -171.72523438 129.62882813 -171.328125 130.828125 C-166.92803665 143.03160627 -160.53933001 153.17543063 -152.49609375 163.30078125 C-151.9546875 164.00976562 -151.41328125 164.71875 -150.85546875 165.44921875 C-134.79756225 185.31885052 -108.71535605 196.49028293 -83.95703125 199.76953125 C-57.7034249 202.24310444 -30.90293365 194.66329503 -10.18359375 178.23828125 C-8.61840519 176.92898859 -7.05562531 175.61680701 -5.49609375 174.30078125 C-4.61050781 173.63369141 -4.61050781 173.63369141 -3.70703125 172.953125 C11.41350676 161.23649957 20.81488813 142.11068389 26.50390625 124.30078125 C26.84550781 123.264375 27.18710937 122.22796875 27.5390625 121.16015625 C32.30725292 103.50676287 31.21063424 82.58936047 25.50390625 65.30078125 C25.14167969 64.1715625 24.77945313 63.04234375 24.40625 61.87890625 C19.9666805 49.29761777 13.14136213 38.4022127 4.50390625 28.30078125 C4.06046875 27.71296875 3.61703125 27.12515625 3.16015625 26.51953125 C-12.10150871 6.79103752 -39.06224648 -3.99274891 -63.03515625 -7.16796875 C-88.72349857 -9.58828366 -114.92895956 -2.42702725 -135.49609375 13.30078125 Z " fill="#000000" transform="translate(441.49609375,271.69921875)"/>
<path d="M0 0 C5.82485779 3.51996782 10.54466582 8.98962934 12.5625 15.5 C13.54037248 25.01720074 12.88210854 32.01093646 6.9609375 39.53515625 C5.53987905 41.22897711 4.0565142 42.87016633 2.5625 44.5 C6.1925 48.79 9.8225 53.08 13.5625 57.5 C18.13001033 56.58649793 19.73276072 55.92646158 23.375 53.4375 C28.17981664 50.46581757 30.96799393 49.53542999 36.5625 50.5 C39.0625 52 39.0625 52 40.5625 54.5 C41.33653846 59.91826923 41.33653846 59.91826923 40.5625 62.5 C36.62510688 67.31936918 31.57885169 70.20642224 26.25 73.3125 C25.02506836 74.06563477 25.02506836 74.06563477 23.77539062 74.83398438 C18.41158345 77.97533758 14.78733814 79.27467699 8.5625 78.5 C6.42859533 76.85853487 5.21742674 75.56068013 3.5625 73.5 C2.02645305 71.78661193 0.4842826 70.07870258 -1.0625 68.375 C-1.81789063 67.52679688 -2.57328125 66.67859375 -3.3515625 65.8046875 C-5.00318956 63.9798561 -6.67563148 62.21698015 -8.4375 60.5 C-8.84935547 61.38377319 -8.84935547 61.38377319 -9.26953125 62.28540039 C-10.39265919 64.41497681 -11.59090791 66.08611606 -13.125 67.93359375 C-13.91874023 68.89821533 -13.91874023 68.89821533 -14.72851562 69.88232422 C-15.29248047 70.56053223 -15.85644531 71.23874023 -16.4375 71.9375 C-19.81606386 76.02729101 -23.18475696 80.10799734 -26.34375 84.37109375 C-27.00503906 85.26066772 -27.00503906 85.26066772 -27.6796875 86.16821289 C-28.86781221 87.78043725 -30.04367698 89.40167577 -31.21875 91.0234375 C-33.53969481 93.61406956 -35.13655091 94.535286 -38.4375 95.5 C-38.02387207 95.98879639 -37.61024414 96.47759277 -37.18408203 96.98120117 C-35.30353022 99.21108885 -33.4329741 101.44915379 -31.5625 103.6875 C-30.91152344 104.45642578 -30.26054687 105.22535156 -29.58984375 106.01757812 C-28.96464844 106.76845703 -28.33945312 107.51933594 -27.6953125 108.29296875 C-26.83123779 109.32200317 -26.83123779 109.32200317 -25.94970703 110.37182617 C-23.05947203 114.43933965 -22.09487473 118.63189057 -21.3125 123.5 C-21.14492188 124.510625 -20.97734375 125.52125 -20.8046875 126.5625 C-20.46885529 129.24915771 -20.36793323 131.79683403 -20.4375 134.5 C-19.83421875 134.45359375 -19.2309375 134.4071875 -18.609375 134.359375 C-12.17421076 134.06875468 -12.17421076 134.06875468 -8.875 136 C-6.91007241 139.41726538 -6.41634195 142.65564028 -7.4375 146.5 C-9.52172345 149.08462403 -10.71603319 150.35796634 -14.01757812 151.00793457 C-14.99146484 151.01111694 -15.96535156 151.01429932 -16.96875 151.01757812 C-18.07669922 151.03018677 -19.18464844 151.04279541 -20.32617188 151.05578613 C-22.1137793 151.04364075 -22.1137793 151.04364075 -23.9375 151.03125 C-25.77924805 151.03699036 -25.77924805 151.03699036 -27.65820312 151.04284668 C-30.25391459 151.04556842 -32.84965336 151.03818911 -35.4453125 151.02148438 C-39.42249599 151.00008075 -43.39787282 151.02127963 -47.375 151.046875 C-49.89583733 151.04423177 -52.41667353 151.03910691 -54.9375 151.03125 C-56.12923828 151.03934692 -57.32097656 151.04744385 -58.54882812 151.05578613 C-60.21075195 151.03687317 -60.21075195 151.03687317 -61.90625 151.01757812 C-63.36708008 151.01280457 -63.36708008 151.01280457 -64.85742188 151.00793457 C-68.15896681 150.35796634 -69.35327655 149.08462403 -71.4375 146.5 C-71.96875 144.5 -71.96875 144.5 -71.9375 142.5 C-71.9478125 141.84 -71.958125 141.18 -71.96875 140.5 C-71.1791683 137.52745712 -69.83937451 136.39981534 -67.4375 134.5 C-64.22949219 134.04589844 -64.22949219 134.04589844 -60.484375 134.109375 C-59.82415344 134.11503479 -59.16393188 134.12069458 -58.48370361 134.12652588 C-56.38421737 134.1488377 -54.2864663 134.19901686 -52.1875 134.25 C-50.7604414 134.27007206 -49.33335592 134.28832161 -47.90625 134.3046875 C-44.41610707 134.34868307 -40.92697301 134.41767124 -37.4375 134.5 C-38.91726552 125.89397361 -40.74654067 119.70296552 -46.625 113.1875 C-47.18380859 112.53072266 -47.74261719 111.87394531 -48.31835938 111.19726562 C-49.67078079 109.61366106 -51.05115644 108.05399441 -52.4375 106.5 C-54.00128292 107.26822734 -55.563466 108.03971164 -57.125 108.8125 C-58.04410156 109.26625 -58.96320313 109.72 -59.91015625 110.1875 C-62.51874938 111.47534454 -62.51874938 111.47534454 -65.0625 113.3125 C-68.54249992 115.05249996 -71.67417067 115.17597702 -75.4375 114.5 C-78.79207305 112.8841713 -81.69813113 110.76998243 -84.6875 108.5625 C-85.51362793 107.97364014 -86.33975586 107.38478027 -87.19091797 106.77807617 C-89.62089721 105.03767283 -92.03064152 103.2721837 -94.4375 101.5 C-95.7261811 100.5671812 -97.01520514 99.63483586 -98.3046875 98.703125 C-106.23403347 92.90693305 -106.23403347 92.90693305 -107.4375 90.5 C-108.00622038 83.4478673 -108.00622038 83.4478673 -105.9375 80 C-102.42459073 77.89225444 -99.37612003 77.74276637 -95.4375 78.5 C-91.96199641 80.22684996 -88.92463007 82.44307184 -85.8125 84.75 C-84.99265625 85.33652344 -84.1728125 85.92304688 -83.328125 86.52734375 C-81.74225977 87.66192579 -80.16096472 88.80293104 -78.58496094 89.95117188 C-75.91521018 91.8766947 -73.19240036 93.6990619 -70.4375 95.5 C-68.7875 94.51 -67.1375 93.52 -65.4375 92.5 C-66.47128841 89.48478381 -67.38380894 87.5584285 -69.5625 85.1875 C-72.02664037 81.65556548 -71.97987635 78.63994776 -71.4375 74.5 C-70.00048828 71.0690918 -70.00048828 71.0690918 -68.0078125 67.69921875 C-67.65741913 67.09616409 -67.30702576 66.49310944 -66.9460144 65.8717804 C-65.83414391 63.96708702 -64.69893624 62.07761611 -63.5625 60.1875 C-62.80702415 58.90131128 -62.05310294 57.61420807 -61.30078125 56.32617188 C-58.76144731 51.99574022 -56.22282542 47.67798813 -53.4375 43.5 C-61.40303559 44.63959487 -66.9918932 46.15080833 -72.11206055 52.54443359 C-73.87069353 54.94310381 -75.55437894 57.38799691 -77.23510742 59.84155273 C-79.50796809 62.97648523 -81.73862325 65.99065334 -85.53515625 67.12890625 C-88.80243864 67.0184812 -91.12151619 66.68959029 -93.9375 65 C-96.0130732 61.54071133 -96.10688894 58.39210793 -95.4375 54.5 C-94.09935799 51.86825003 -92.31939705 49.77112593 -90.375 47.5625 C-89.35465614 46.3496415 -88.33512417 45.13609951 -87.31640625 43.921875 C-86.81898926 43.33986328 -86.32157227 42.75785156 -85.80908203 42.15820312 C-83.48508484 39.34855753 -81.47152014 36.30864894 -79.4609375 33.26953125 C-73.2299386 27.82041445 -62.56490591 27.03356411 -54.75 25.3125 C-53.55310547 25.03986328 -52.35621094 24.76722656 -51.12304688 24.48632812 C-49.96482422 24.22916016 -48.80660156 23.97199219 -47.61328125 23.70703125 C-46.04960815 23.35862183 -46.04960815 23.35862183 -44.4543457 23.00317383 C-41.39106769 22.49225564 -38.53696253 22.41055068 -35.4375 22.5 C-35.52 21.51 -35.6025 20.52 -35.6875 19.5 C-35.64199536 13.85742456 -33.3923711 9.58138677 -29.56640625 5.5078125 C-21.47281646 -1.86668708 -10.50288165 -4.65421815 0 0 Z M-16.8125 17.125 C-18.92456506 20.21186432 -19.04945145 21.8282913 -18.4375 25.5 C-16.9375 28 -16.9375 28 -14.4375 29.5 C-10.7657913 30.11195145 -9.14936432 29.98706506 -6.0625 27.875 C-3.95043494 24.78813568 -3.82554855 23.1717087 -4.4375 19.5 C-5.9375 17 -5.9375 17 -8.4375 15.5 C-12.1092087 14.88804855 -13.72563568 15.01293494 -16.8125 17.125 Z M-32.4375 42.5 C-35.1211359 46.82363561 -37.78892222 51.15498102 -40.4375 55.5 C-41.1188501 56.6147168 -41.1188501 56.6147168 -41.81396484 57.75195312 C-43.21846309 60.0584094 -44.61060343 62.37192131 -46 64.6875 C-46.6803833 65.80112915 -46.6803833 65.80112915 -47.37451172 66.93725586 C-48.4578336 68.75579443 -49.45625942 70.62441055 -50.4375 72.5 C-50.1075 73.16 -49.7775 73.82 -49.4375 74.5 C-47.1234378 75.23075648 -44.78921131 75.90138258 -42.4375 76.5 C-37.60218952 71.26290154 -33.03728857 65.8447436 -28.625 60.25 C-28.15731201 59.66009277 -27.68962402 59.07018555 -27.20776367 58.46240234 C-26.76150635 57.89215332 -26.31524902 57.3219043 -25.85546875 56.734375 C-25.46125732 56.23131836 -25.0670459 55.72826172 -24.66088867 55.20996094 C-23.12312521 53.0605905 -21.79722086 50.76620143 -20.4375 48.5 C-24.3975 46.52 -28.3575 44.54 -32.4375 42.5 Z " fill="#000000" transform="translate(403.4375,293.5)"/>
<path d="M0 0 C0.78463749 -0.00623996 1.56927498 -0.01247993 2.37768936 -0.01890898 C5.00958463 -0.03487699 7.64055863 -0.02222024 10.27246094 -0.00964355 C12.15816794 -0.01506299 14.04387071 -0.02218465 15.92956543 -0.03088379 C21.05350598 -0.04914126 26.17712489 -0.04203958 31.30107117 -0.02936745 C36.65905637 -0.01925235 42.01701373 -0.02862898 47.375 -0.03491211 C56.37342278 -0.04219286 65.37171432 -0.03258957 74.37011719 -0.0135498 C84.77894229 0.00821971 95.18745401 0.00116865 105.59627151 -0.02085543 C114.52715363 -0.03899722 123.45794132 -0.04157371 132.38883591 -0.03110075 C137.72546273 -0.02485912 143.06194217 -0.02404861 148.39855957 -0.0372467 C153.41535641 -0.0487868 158.43174855 -0.04081311 163.44850159 -0.01766968 C165.29158353 -0.01237274 167.13469943 -0.01391314 168.97776794 -0.02272034 C171.49019841 -0.03362079 174.00132493 -0.01997986 176.51367188 0 C177.2463541 -0.00892289 177.97903633 -0.01784577 178.73392105 -0.02703905 C182.16546078 0.02604394 183.95497263 0.27534256 186.70903778 2.39740753 C188.55452872 4.91385873 188.76256595 6.20810365 188.77441406 9.30480957 C188.78702271 10.25259277 188.79963135 11.20037598 188.81262207 12.17687988 C188.80452515 13.19362793 188.79642822 14.21037598 188.78808594 15.25793457 C188.79191284 16.30819824 188.79573975 17.35846191 188.79968262 18.44055176 C188.80240289 20.65963704 188.7950337 22.87875432 188.77832031 25.09777832 C188.75691339 28.49564052 188.77811919 31.89138818 188.80371094 35.28918457 C188.80106768 37.44543924 188.79594276 39.60169259 188.78808594 41.75793457 C188.79618286 42.77468262 188.80427979 43.79143066 188.81262207 44.83898926 C188.79370911 46.26066406 188.79370911 46.26066406 188.77441406 47.71105957 C188.77123169 48.54282715 188.76804932 49.37459473 188.76477051 50.23156738 C188.04533416 53.45580413 186.87048763 54.49406111 184.25683594 56.50793457 C181.54027463 56.90092201 179.22859868 57.04893257 176.51367188 57.01586914 C175.72903439 57.0221091 174.9443969 57.02834907 174.13598251 57.03477812 C171.50408724 57.05074613 168.87311325 57.03808938 166.24121094 57.0255127 C164.35550394 57.03093213 162.46980117 57.03805379 160.58410645 57.04675293 C155.46016589 57.0650104 150.33654699 57.05790872 145.21260071 57.04523659 C139.8546155 57.03512149 134.49665814 57.04449812 129.13867188 57.05078125 C120.14024909 57.058062 111.14195755 57.04845871 102.14355469 57.02941895 C91.73472959 57.00764943 81.32621787 57.01470049 70.91740036 57.03672457 C61.98651824 57.05486636 53.05573056 57.05744285 44.12483597 57.04696989 C38.78820915 57.04072826 33.4517297 57.03991775 28.1151123 57.05311584 C23.09831546 57.06465594 18.08192333 57.05668225 13.06517029 57.03353882 C11.22208834 57.02824188 9.37897244 57.02978228 7.53590393 57.03858948 C5.02347346 57.04948993 2.51234694 57.03584901 0 57.01586914 C-0.73268223 57.02479203 -1.46536446 57.03371491 -2.22024918 57.04290819 C-5.65178891 56.98982521 -7.44130076 56.74052658 -10.19536591 54.61846161 C-12.04085684 52.10201041 -12.24889408 50.80776549 -12.26074219 47.71105957 C-12.27965515 46.28938477 -12.27965515 46.28938477 -12.2989502 44.83898926 C-12.29085327 43.82224121 -12.28275635 42.80549316 -12.27441406 41.75793457 C-12.27824097 40.7076709 -12.28206787 39.65740723 -12.28601074 38.57531738 C-12.28873102 36.3562321 -12.28136183 34.13711483 -12.26464844 31.91809082 C-12.24324152 28.52022862 -12.26444732 25.12448096 -12.29003906 21.72668457 C-12.28739581 19.5704299 -12.28227088 17.41417655 -12.27441406 15.25793457 C-12.28251099 14.24118652 -12.29060791 13.22443848 -12.2989502 12.17687988 C-12.28634155 11.22909668 -12.27373291 10.28131348 -12.26074219 9.30480957 C-12.25755981 8.47304199 -12.25437744 7.64127441 -12.25109863 6.78430176 C-10.79946564 0.27864158 -5.74750026 -0.06999528 0 0 Z M4.25683594 16.50793457 C4.25683594 24.42793457 4.25683594 32.34793457 4.25683594 40.50793457 C59.69683594 40.50793457 115.13683594 40.50793457 172.25683594 40.50793457 C172.25683594 32.58793457 172.25683594 24.66793457 172.25683594 16.50793457 C116.81683594 16.50793457 61.37683594 16.50793457 4.25683594 16.50793457 Z " fill="#000000" transform="translate(75.7431640625,95.4920654296875)"/>
<path d="M0 0 C1.2113562 -0.0112793 2.4227124 -0.02255859 3.67077637 -0.03417969 C5.01001216 -0.02640276 6.34924559 -0.01821011 7.68847656 -0.00964355 C9.10128501 -0.01506471 10.5140878 -0.02218734 11.92687988 -0.03088379 C15.76164099 -0.04912126 19.59597171 -0.04204814 23.43074036 -0.02936745 C27.44342206 -0.01924186 31.45606686 -0.02863189 35.46875 -0.03491211 C42.20742409 -0.04218982 48.94592284 -0.03259765 55.68457031 -0.0135498 C63.4759158 0.0082193 71.26684261 0.001168 79.05817795 -0.02085543 C85.74704955 -0.03900598 92.4357951 -0.04156948 99.12468338 -0.03110075 C103.11993523 -0.02486387 107.11499028 -0.02403537 111.11022949 -0.0372467 C114.86636457 -0.04879972 118.62195976 -0.04079024 122.3780365 -0.01766968 C123.75669966 -0.01237954 125.13540824 -0.01390167 126.51405334 -0.02272034 C128.39542013 -0.03364541 130.27688618 -0.0175175 132.15820312 0 C133.73773773 0.00226215 133.73773773 0.00226215 135.34918213 0.00457001 C138.76968047 0.63526908 139.95394572 1.80875511 142.07910156 4.50793457 C142.58703613 6.78430176 142.58703613 6.78430176 142.59667969 9.30480957 C142.60928833 10.25259277 142.62189697 11.20037598 142.6348877 12.17687988 C142.62679077 13.19362793 142.61869385 14.21037598 142.61035156 15.25793457 C142.61417847 16.30819824 142.61800537 17.35846191 142.62194824 18.44055176 C142.62466852 20.65963704 142.61729933 22.87875432 142.60058594 25.09777832 C142.57917902 28.49564052 142.60038482 31.89138818 142.62597656 35.28918457 C142.62333331 37.44543924 142.61820838 39.60169259 142.61035156 41.75793457 C142.61844849 42.77468262 142.62654541 43.79143066 142.6348877 44.83898926 C142.61597473 46.26066406 142.61597473 46.26066406 142.59667969 47.71105957 C142.59349731 48.54282715 142.59031494 49.37459473 142.58703613 50.23156738 C141.88181862 53.39208077 140.58186898 54.48557189 138.07910156 56.50793457 C135.34918213 57.01129913 135.34918213 57.01129913 132.15820312 57.01586914 C130.94684692 57.02714844 129.73549072 57.03842773 128.48742676 57.05004883 C127.14819097 57.04227191 125.80895754 57.03407925 124.46972656 57.0255127 C123.05691812 57.03093385 121.64411532 57.03805648 120.23132324 57.04675293 C116.39656213 57.0649904 112.56223141 57.05791728 108.72746277 57.04523659 C104.71478107 57.035111 100.70213627 57.04450103 96.68945312 57.05078125 C89.95077903 57.05805896 83.21228028 57.04846679 76.47363281 57.02941895 C68.68228733 57.00764984 60.89136052 57.01470114 53.10002518 57.03672457 C46.41115357 57.05487512 39.72240802 57.05743862 33.03351974 57.04696989 C29.03826789 57.04073302 25.04321285 57.03990451 21.04797363 57.05311584 C17.29183855 57.06466886 13.53624336 57.05665938 9.78016663 57.03353882 C8.40150347 57.02824868 7.02279489 57.02977081 5.64414978 57.03858948 C3.762783 57.04951455 1.88131695 57.03338664 0 57.01586914 C-1.57953461 57.01360699 -1.57953461 57.01360699 -3.190979 57.01129913 C-6.61147735 56.38060006 -7.7957426 55.20711403 -9.92089844 52.50793457 C-10.42883301 50.23156738 -10.42883301 50.23156738 -10.43847656 47.71105957 C-10.45738953 46.28938477 -10.45738953 46.28938477 -10.47668457 44.83898926 C-10.46858765 43.82224121 -10.46049072 42.80549316 -10.45214844 41.75793457 C-10.45597534 40.7076709 -10.45980225 39.65740723 -10.46374512 38.57531738 C-10.46646539 36.3562321 -10.4590962 34.13711483 -10.44238281 31.91809082 C-10.42097589 28.52022862 -10.44218169 25.12448096 -10.46777344 21.72668457 C-10.46513018 19.5704299 -10.46000526 17.41417655 -10.45214844 15.25793457 C-10.46024536 14.24118652 -10.46834229 13.22443848 -10.47668457 12.17687988 C-10.46407593 11.22909668 -10.45146729 10.28131348 -10.43847656 9.30480957 C-10.43529419 8.47304199 -10.43211182 7.64127441 -10.42883301 6.78430176 C-9.17108314 1.14755111 -5.25371926 0.00752419 0 0 Z M6.07910156 16.50793457 C6.07910156 24.42793457 6.07910156 32.34793457 6.07910156 40.50793457 C45.67910156 40.50793457 85.27910156 40.50793457 126.07910156 40.50793457 C126.07910156 32.58793457 126.07910156 24.66793457 126.07910156 16.50793457 C86.47910156 16.50793457 46.87910156 16.50793457 6.07910156 16.50793457 Z " fill="#000000" transform="translate(133.9208984375,171.4920654296875)"/>
<path d="M0 0 C1.2113562 -0.0112793 2.4227124 -0.02255859 3.67077637 -0.03417969 C5.01001216 -0.02640276 6.34924559 -0.01821011 7.68847656 -0.00964355 C9.10128501 -0.01506471 10.5140878 -0.02218734 11.92687988 -0.03088379 C15.76164099 -0.04912126 19.59597171 -0.04204814 23.43074036 -0.02936745 C27.44342206 -0.01924186 31.45606686 -0.02863189 35.46875 -0.03491211 C42.20742409 -0.04218982 48.94592284 -0.03259765 55.68457031 -0.0135498 C63.4759158 0.0082193 71.26684261 0.001168 79.05817795 -0.02085543 C85.74704955 -0.03900598 92.4357951 -0.04156948 99.12468338 -0.03110075 C103.11993523 -0.02486387 107.11499028 -0.02403537 111.11022949 -0.0372467 C114.86636457 -0.04879972 118.62195976 -0.04079024 122.3780365 -0.01766968 C123.75669966 -0.01237954 125.13540824 -0.01390167 126.51405334 -0.02272034 C128.39542013 -0.03364541 130.27688618 -0.0175175 132.15820312 0 C133.73773773 0.00226215 133.73773773 0.00226215 135.34918213 0.00457001 C138.76961733 0.63525744 139.94990356 1.81275401 142.07910156 4.50793457 C143.70787343 10.82866439 143.40655301 19.14133531 142.07910156 25.50793457 C140.4663151 28.02765023 139.12199382 29.58895277 136.70800781 31.35949707 C132.9222958 34.45331818 130.24282836 38.23045332 127.32910156 42.13293457 C126.77456299 42.86286621 126.22002441 43.59279785 125.64868164 44.34484863 C122.30774941 48.73772594 122.30774941 48.73772594 119.71417236 53.59356689 C116.7171065 56.90829828 116.19767375 56.96645772 111.95544434 57.25637817 C109.76965041 57.28601469 107.58325557 57.28214825 105.39746094 57.25256348 C104.20361282 57.25986481 103.00976471 57.26716614 101.77973938 57.27468872 C98.50861542 57.28812309 95.23897658 57.27467642 91.96797371 57.24802446 C88.54387378 57.22537587 85.11983204 57.23361195 81.69567871 57.23751831 C75.94552036 57.23928369 70.19583381 57.21713537 64.44580078 57.18029785 C57.79956677 57.1379624 51.15402386 57.13094272 44.50768232 57.14342177 C38.11210989 57.15481483 31.71678065 57.14351127 25.32124329 57.12107468 C22.60040282 57.11179005 19.87971125 57.11003169 17.15885925 57.11424637 C13.35908144 57.11498645 9.5603614 57.08978375 5.76074219 57.05725098 C4.06652885 57.06468323 4.06652885 57.06468323 2.33808899 57.07226562 C0.78610054 57.0510112 0.78610054 57.0510112 -0.79724121 57.02932739 C-1.69540306 57.02522165 -2.59356491 57.02111591 -3.51894379 57.01688576 C-6.69170665 56.34460769 -7.905059 54.99274027 -9.92089844 52.50793457 C-10.42883301 50.23156738 -10.42883301 50.23156738 -10.43847656 47.71105957 C-10.45738953 46.28938477 -10.45738953 46.28938477 -10.47668457 44.83898926 C-10.46858765 43.82224121 -10.46049072 42.80549316 -10.45214844 41.75793457 C-10.45597534 40.7076709 -10.45980225 39.65740723 -10.46374512 38.57531738 C-10.46646539 36.3562321 -10.4590962 34.13711483 -10.44238281 31.91809082 C-10.42097589 28.52022862 -10.44218169 25.12448096 -10.46777344 21.72668457 C-10.46513018 19.5704299 -10.46000526 17.41417655 -10.45214844 15.25793457 C-10.46024536 14.24118652 -10.46834229 13.22443848 -10.47668457 12.17687988 C-10.46407593 11.22909668 -10.45146729 10.28131348 -10.43847656 9.30480957 C-10.43529419 8.47304199 -10.43211182 7.64127441 -10.42883301 6.78430176 C-9.17108314 1.14755111 -5.25371926 0.00752419 0 0 Z M6.07910156 16.50793457 C6.07910156 24.42793457 6.07910156 32.34793457 6.07910156 40.50793457 C45.67910156 40.50793457 85.27910156 40.50793457 126.07910156 40.50793457 C126.07910156 32.58793457 126.07910156 24.66793457 126.07910156 16.50793457 C86.47910156 16.50793457 46.87910156 16.50793457 6.07910156 16.50793457 Z " fill="#000000" transform="translate(133.9208984375,243.4920654296875)"/>
<path d="M0 0 C1.12224472 -0.00058411 2.24448944 -0.00116821 3.40074158 -0.00177002 C7.11285249 0.00101831 10.82416204 0.03214732 14.53613281 0.06347656 C17.10873984 0.07093624 19.68135255 0.07663046 22.25396729 0.08062744 C28.33490761 0.09434328 34.41551685 0.1258734 40.49633241 0.1660254 C47.42007374 0.21074994 54.34382889 0.2327318 61.26767874 0.25280714 C75.50836397 0.29460659 89.74879032 0.36576094 103.98925781 0.45410156 C102.33925781 5.73410156 100.68925781 11.01410156 98.98925781 16.45410156 C66.64925781 16.45410156 34.30925781 16.45410156 0.98925781 16.45410156 C0.98925781 24.37410156 0.98925781 32.29410156 0.98925781 40.45410156 C31.67925781 40.45410156 62.36925781 40.45410156 93.98925781 40.45410156 C93.98925781 45.73410156 93.98925781 51.01410156 93.98925781 56.45410156 C80.36809932 56.54670251 66.74701546 56.61781644 53.12560654 56.66135025 C46.80090991 56.68224226 40.47642832 56.71058991 34.15185547 56.75585938 C28.05050792 56.79925873 21.94936747 56.82322651 15.8478775 56.83361053 C13.51780181 56.84101247 11.18773769 56.85546636 8.85774994 56.87702179 C5.59892611 56.90597643 2.34096261 56.91006079 -0.91796875 56.90820312 C-2.36913841 56.92977478 -2.36913841 56.92977478 -3.84962463 56.95178223 C-10.32280065 56.91174355 -10.32280065 56.91174355 -13.60919189 54.7255249 C-15.21396491 52.12474853 -15.51669027 50.69693729 -15.52832031 47.65722656 C-15.54723328 46.23555176 -15.54723328 46.23555176 -15.56652832 44.78515625 C-15.5584314 43.7684082 -15.55033447 42.75166016 -15.54199219 41.70410156 C-15.54581909 40.65383789 -15.549646 39.60357422 -15.55358887 38.52148438 C-15.55630914 36.3023991 -15.54893995 34.08328182 -15.53222656 31.86425781 C-15.51081964 28.46639561 -15.53202544 25.07064795 -15.55761719 21.67285156 C-15.55497393 19.51659689 -15.54984901 17.36034354 -15.54199219 15.20410156 C-15.55008911 14.18735352 -15.55818604 13.17060547 -15.56652832 12.12304688 C-15.55391968 11.17526367 -15.54131104 10.22748047 -15.52832031 9.25097656 C-15.52513794 8.41920898 -15.52195557 7.58744141 -15.51867676 6.73046875 C-13.74169835 -1.23326431 -6.62069701 -0.08974276 0 0 Z " fill="#000000" transform="translate(139.0107421875,315.5458984375)"/>
<path d="M0 0 C1.05026367 -0.0038269 2.10052734 -0.00765381 3.18261719 -0.01159668 C5.40170247 -0.01431696 7.62081974 -0.00694777 9.83984375 0.00976562 C13.23770595 0.03117255 16.63345361 0.00996675 20.03125 -0.015625 C22.18750467 -0.01298175 24.34375802 -0.00785682 26.5 0 C27.51674805 -0.00809692 28.53349609 -0.01619385 29.58105469 -0.02453613 C33.48440043 0.02739124 36.39212968 0.08866257 39.88867188 1.89257812 C42.11406275 6.2060689 41.81932893 10.49959728 41.78125 15.28125 C41.7850769 16.33151367 41.78890381 17.38177734 41.79284668 18.46386719 C41.79556696 20.68295247 41.78819777 22.90206974 41.77148438 25.12109375 C41.75007745 28.51895595 41.77128325 31.91470361 41.796875 35.3125 C41.79423175 37.46875467 41.78910682 39.62500802 41.78125 41.78125 C41.78934692 42.79799805 41.79744385 43.81474609 41.80578613 44.86230469 C41.75385876 48.76565043 41.69258743 51.67337968 39.88867188 55.16992188 C35.5751811 57.39531275 31.28165272 57.10057893 26.5 57.0625 C24.92460449 57.06824036 24.92460449 57.06824036 23.31738281 57.07409668 C21.09829753 57.07681696 18.87918026 57.06944777 16.66015625 57.05273438 C13.26229405 57.03132745 9.86654639 57.05253325 6.46875 57.078125 C4.31249533 57.07548175 2.15624198 57.07035682 0 57.0625 C-1.01674805 57.07059692 -2.03349609 57.07869385 -3.08105469 57.08703613 C-6.98440043 57.03510876 -9.89212968 56.97383743 -13.38867188 55.16992188 C-15.61406275 50.8564311 -15.31932893 46.56290272 -15.28125 41.78125 C-15.2850769 40.73098633 -15.28890381 39.68072266 -15.29284668 38.59863281 C-15.29556696 36.37954753 -15.28819777 34.16043026 -15.27148438 31.94140625 C-15.25007745 28.54354405 -15.27128325 25.14779639 -15.296875 21.75 C-15.29423175 19.59374533 -15.28910682 17.43749198 -15.28125 15.28125 C-15.28934692 14.26450195 -15.29744385 13.24775391 -15.30578613 12.20019531 C-15.25385876 8.29684957 -15.19258743 5.38912032 -13.38867188 1.89257812 C-9.0751811 -0.33281275 -4.78165272 -0.03807893 0 0 Z M1.25 16.53125 C1.25 24.45125 1.25 32.37125 1.25 40.53125 C9.17 40.53125 17.09 40.53125 25.25 40.53125 C25.25 32.61125 25.25 24.69125 25.25 16.53125 C17.33 16.53125 9.41 16.53125 1.25 16.53125 Z " fill="#000000" transform="translate(66.75,315.46875)"/>
<path d="M0 0 C1.05026367 -0.0038269 2.10052734 -0.00765381 3.18261719 -0.01159668 C5.40170247 -0.01431696 7.62081974 -0.00694777 9.83984375 0.00976562 C13.23770595 0.03117255 16.63345361 0.00996675 20.03125 -0.015625 C22.18750467 -0.01298175 24.34375802 -0.00785682 26.5 0 C27.51674805 -0.00809692 28.53349609 -0.01619385 29.58105469 -0.02453613 C33.48440043 0.02739124 36.39212968 0.08866257 39.88867188 1.89257812 C42.11406275 6.2060689 41.81932893 10.49959728 41.78125 15.28125 C41.7850769 16.33151367 41.78890381 17.38177734 41.79284668 18.46386719 C41.79556696 20.68295247 41.78819777 22.90206974 41.77148438 25.12109375 C41.75007745 28.51895595 41.77128325 31.91470361 41.796875 35.3125 C41.79423175 37.46875467 41.78910682 39.62500802 41.78125 41.78125 C41.78934692 42.79799805 41.79744385 43.81474609 41.80578613 44.86230469 C41.75385876 48.76565043 41.69258743 51.67337968 39.88867188 55.16992188 C35.5751811 57.39531275 31.28165272 57.10057893 26.5 57.0625 C24.92460449 57.06824036 24.92460449 57.06824036 23.31738281 57.07409668 C21.09829753 57.07681696 18.87918026 57.06944777 16.66015625 57.05273438 C13.26229405 57.03132745 9.86654639 57.05253325 6.46875 57.078125 C4.31249533 57.07548175 2.15624198 57.07035682 0 57.0625 C-1.01674805 57.07059692 -2.03349609 57.07869385 -3.08105469 57.08703613 C-6.98440043 57.03510876 -9.89212968 56.97383743 -13.38867188 55.16992188 C-15.61406275 50.8564311 -15.31932893 46.56290272 -15.28125 41.78125 C-15.2850769 40.73098633 -15.28890381 39.68072266 -15.29284668 38.59863281 C-15.29556696 36.37954753 -15.28819777 34.16043026 -15.27148438 31.94140625 C-15.25007745 28.54354405 -15.27128325 25.14779639 -15.296875 21.75 C-15.29423175 19.59374533 -15.28910682 17.43749198 -15.28125 15.28125 C-15.28934692 14.26450195 -15.29744385 13.24775391 -15.30578613 12.20019531 C-15.25385876 8.29684957 -15.19258743 5.38912032 -13.38867188 1.89257812 C-9.0751811 -0.33281275 -4.78165272 -0.03807893 0 0 Z M1.25 16.53125 C1.25 24.45125 1.25 32.37125 1.25 40.53125 C9.17 40.53125 17.09 40.53125 25.25 40.53125 C25.25 32.61125 25.25 24.69125 25.25 16.53125 C17.33 16.53125 9.41 16.53125 1.25 16.53125 Z " fill="#000000" transform="translate(66.75,243.46875)"/>
<path d="M0 0 C1.05026367 -0.0038269 2.10052734 -0.00765381 3.18261719 -0.01159668 C5.40170247 -0.01431696 7.62081974 -0.00694777 9.83984375 0.00976562 C13.23770595 0.03117255 16.63345361 0.00996675 20.03125 -0.015625 C22.18750467 -0.01298175 24.34375802 -0.00785682 26.5 0 C27.51674805 -0.00809692 28.53349609 -0.01619385 29.58105469 -0.02453613 C33.48440043 0.02739124 36.39212968 0.08866257 39.88867188 1.89257812 C42.11406275 6.2060689 41.81932893 10.49959728 41.78125 15.28125 C41.7850769 16.33151367 41.78890381 17.38177734 41.79284668 18.46386719 C41.79556696 20.68295247 41.78819777 22.90206974 41.77148438 25.12109375 C41.75007745 28.51895595 41.77128325 31.91470361 41.796875 35.3125 C41.79423175 37.46875467 41.78910682 39.62500802 41.78125 41.78125 C41.78934692 42.79799805 41.79744385 43.81474609 41.80578613 44.86230469 C41.75385876 48.76565043 41.69258743 51.67337968 39.88867188 55.16992188 C35.5751811 57.39531275 31.28165272 57.10057893 26.5 57.0625 C24.92460449 57.06824036 24.92460449 57.06824036 23.31738281 57.07409668 C21.09829753 57.07681696 18.87918026 57.06944777 16.66015625 57.05273438 C13.26229405 57.03132745 9.86654639 57.05253325 6.46875 57.078125 C4.31249533 57.07548175 2.15624198 57.07035682 0 57.0625 C-1.01674805 57.07059692 -2.03349609 57.07869385 -3.08105469 57.08703613 C-6.98440043 57.03510876 -9.89212968 56.97383743 -13.38867188 55.16992188 C-15.61406275 50.8564311 -15.31932893 46.56290272 -15.28125 41.78125 C-15.2850769 40.73098633 -15.28890381 39.68072266 -15.29284668 38.59863281 C-15.29556696 36.37954753 -15.28819777 34.16043026 -15.27148438 31.94140625 C-15.25007745 28.54354405 -15.27128325 25.14779639 -15.296875 21.75 C-15.29423175 19.59374533 -15.28910682 17.43749198 -15.28125 15.28125 C-15.28934692 14.26450195 -15.29744385 13.24775391 -15.30578613 12.20019531 C-15.25385876 8.29684957 -15.19258743 5.38912032 -13.38867188 1.89257812 C-9.0751811 -0.33281275 -4.78165272 -0.03807893 0 0 Z M1.25 16.53125 C1.25 24.45125 1.25 32.37125 1.25 40.53125 C9.17 40.53125 17.09 40.53125 25.25 40.53125 C25.25 32.61125 25.25 24.69125 25.25 16.53125 C17.33 16.53125 9.41 16.53125 1.25 16.53125 Z " fill="#000000" transform="translate(66.75,171.46875)"/>
<path d="M0 0 C0.66 -0.0103125 1.32 -0.020625 2 -0.03125 C5.16093996 0.80837468 6.15259906 1.76356284 8 4.5 C8.58729927 8.90620064 8.36116543 13.35749559 8.22460938 17.79101562 C8.10441931 22.90630854 8.10441931 22.90630854 10.51733398 27.1706543 C12.34646316 28.49696734 12.34646316 28.49696734 14.25488281 29.49072266 C17.52718127 31.3832355 18.97586102 34.00834489 20 37.5 C20.94656395 44.3399534 21.15421738 50.60650859 17.4375 56.625 C13.42910368 61.59615201 10.07562922 64.08126976 3.7578125 64.94140625 C-3.3618927 65.30121931 -8.57890814 64.79682547 -14.22265625 60.24609375 C-19.31807257 55.24026717 -20.26931732 51.66297651 -20.625 44.625 C-20.43169754 37.90236985 -18.83247234 33.24861165 -14 28.5 C-12.67742187 27.96246094 -12.67742187 27.96246094 -11.328125 27.4140625 C-8.81825434 25.7617992 -8.81825434 25.7617992 -8.57104492 23.36303711 C-8.42483562 20.58765732 -8.40199142 17.84151372 -8.4375 15.0625 C-8.52342024 5.27420181 -8.52342024 5.27420181 -6.22265625 1.87109375 C-3.90049599 0.43861879 -2.70254137 -0.04222721 0 0 Z M-2 41.5 C-2.33 43.15 -2.66 44.8 -3 46.5 C-0.525 46.995 -0.525 46.995 2 47.5 C2.33 45.85 2.66 44.2 3 42.5 C1.35 42.17 -0.3 41.84 -2 41.5 Z " fill="#000000" transform="translate(348,95.5)"/>
</svg>
