<?xml version="1.0" encoding="UTF-8"?>
<svg version="1.1" xmlns="http://www.w3.org/2000/svg" width="128" height="128">
<path d="M0 0 C1.67542976 0.28604898 3.34385343 0.61781233 5 1 C5 3.97 5 6.94 5 10 C5.82242188 10.09796875 6.64484375 10.1959375 7.4921875 10.296875 C22.98229132 12.37176189 35.0399927 18.35011422 45.21875 30.53125 C51.53870995 39.29049273 56 50.06814246 56 61 C58.97 61 61.94 61 65 61 C65.38218767 62.65614657 65.71395102 64.32457024 66 66 C65 67 65 67 62.93359375 67.09765625 C62.10988281 67.08605469 61.28617187 67.07445313 60.4375 67.0625 C59.19806641 67.04896484 59.19806641 67.04896484 57.93359375 67.03515625 C56.97646484 67.01775391 56.97646484 67.01775391 56 67 C55.90203125 67.82242188 55.8040625 68.64484375 55.703125 69.4921875 C53.66626528 84.69839886 48.07173928 96.39512825 36.0625 106.4375 C27.00672623 113.15270455 16.49389367 118 5 118 C5 120.97 5 123.94 5 127 C3.34385343 127.38218767 1.67542976 127.71395102 0 128 C-1 127 -1 127 -1.09765625 124.93359375 C-1.08605469 124.10988281 -1.07445312 123.28617187 -1.0625 122.4375 C-1.05347656 121.61121094 -1.04445312 120.78492187 -1.03515625 119.93359375 C-1.02355469 119.29550781 -1.01195312 118.65742187 -1 118 C-2.21623047 117.87044922 -2.21623047 117.87044922 -3.45703125 117.73828125 C-18.37205369 115.84568818 -30.99137684 109.24962882 -40.890625 97.81640625 C-47.69152269 88.81260909 -51.41838488 78.24455898 -52 67 C-54.97 67 -57.94 67 -61 67 C-61.38218767 65.34385343 -61.71395102 63.67542976 -62 62 C-61 61 -61 61 -58.93359375 60.90234375 C-57.69802734 60.91974609 -57.69802734 60.91974609 -56.4375 60.9375 C-55.61121094 60.94652344 -54.78492188 60.95554688 -53.93359375 60.96484375 C-53.29550781 60.97644531 -52.65742187 60.98804688 -52 61 C-51.91363281 60.18917969 -51.82726563 59.37835938 -51.73828125 58.54296875 C-49.81943781 43.42107414 -43.37651671 31.02231925 -31.76171875 21.07421875 C-23.02007742 14.50871444 -12.05968922 10 -1 10 C-1.01160156 9.36191406 -1.02320313 8.72382813 -1.03515625 8.06640625 C-1.04417969 7.24011719 -1.05320313 6.41382813 -1.0625 5.5625 C-1.07410156 4.73878906 -1.08570313 3.91507812 -1.09765625 3.06640625 C-1 1 -1 1 0 0 Z M-34.40625 33.0625 C-40.86751572 40.91737205 -45.82138522 50.59578723 -45 61 C-42.03 61.33 -39.06 61.66 -36 62 C-36 63.32 -36 64.64 -36 66 C-40.455 66.495 -40.455 66.495 -45 67 C-44.1932702 81.11777149 -38.91706456 90.59878538 -28.6875 100.25 C-20.91294731 106.89876567 -11.3897192 111.50681557 -1 111 C-0.67 108.03 -0.34 105.06 0 102 C1.32 102 2.64 102 4 102 C4.495 106.455 4.495 106.455 5 111 C19.11777149 110.1932702 28.59878538 104.91706456 38.25 94.6875 C44.89876567 86.91294731 49.50681557 77.3897192 49 67 C46.03 66.67 43.06 66.34 40 66 C40 64.68 40 63.36 40 62 C44.455 61.505 44.455 61.505 49 61 C48.1932702 46.88222851 42.91706456 37.40121462 32.6875 27.75 C24.91294731 21.10123433 15.3897192 16.49318443 5 17 C4.67 19.97 4.34 22.94 4 26 C2.68 26 1.36 26 0 26 C-0.495 21.545 -0.495 21.545 -1 17 C-14.20948432 16.51148357 -25.56718224 23.72310764 -34.40625 33.0625 Z " fill="#000000" transform="translate(62,0)"/>
<path d="M0 0 C6.47876645 4.6089754 11.44228933 9.97851797 13 18 C13.71702306 27.65223349 12.94416829 34.67780326 6.75 42.25 C1.85651406 47.51592885 -3.48278608 50.66443554 -10.734375 51.203125 C-20.74768125 51.35877225 -26.8344695 49.78250673 -34.23828125 42.90234375 C-40.31513167 36.34042323 -41.3226024 29.68857984 -41.20703125 21.03125 C-40.65386058 12.93199646 -36.88646452 7.45132546 -31 2 C-22.26875012 -4.32514344 -9.4688185 -5.58265757 0 0 Z M-30 10 C-33.88288308 15.39289317 -35.2718631 20.32889787 -35 27 C-33.5916013 33.62640043 -30.37466481 38.29024133 -24.875 42.25 C-19.85818126 44.88194987 -14.31283433 45.70412158 -8.7578125 44.5234375 C-2.50183035 42.37515684 2.07000357 39.03034013 5.20703125 33.05078125 C7.29247843 27.65738338 7.69768068 22.17731187 5.8125 16.6875 C3.08715803 10.61353158 -0.69557733 6.4377101 -7 4 C-15.83895647 1.88038075 -23.4686893 3.4686893 -30 10 Z " fill="#000000" transform="translate(78,40)"/>
</svg>
