<?xml version="1.0" encoding="UTF-8"?>
<svg version="1.1" xmlns="http://www.w3.org/2000/svg" width="512" height="512">
<path d="M0 0 C8.23334082 7.73487133 12.1156488 16.80954159 13.6875 27.8125 C13.6875 54.2125 13.6875 80.6125 13.6875 107.8125 C78.3675 107.8125 143.0475 107.8125 209.6875 107.8125 C209.6875 84.0525 209.6875 60.2925 209.6875 35.8125 C213.28001956 21.44242178 217.48825347 11.55483651 229.87109375 3.42578125 C239.1361307 -1.88137584 247.82170316 -2.56514713 258.3125 -2.6875 C259.36123291 -2.70611084 260.40996582 -2.72472168 261.49047852 -2.74389648 C273.62725529 -2.64579651 283.94418342 1.56913998 292.84765625 9.8125 C298.72376871 15.96319715 302.01656999 22.79970997 304.6875 30.8125 C305.96427612 30.7810791 305.96427612 30.7810791 307.2668457 30.74902344 C310.47806666 30.68013838 313.68890643 30.63035949 316.90063477 30.59277344 C318.280645 30.5728733 319.66057337 30.5457426 321.0402832 30.51074219 C335.39679388 30.15613168 345.89082837 33.09045821 356.6875 42.8125 C367.38186582 54.77669775 368.27875435 67.43380209 368.20507812 82.6953125 C368.21050641 84.59039852 368.21763302 86.48548031 368.22631836 88.3805542 C368.24447057 93.50041916 368.23751775 98.61995977 368.22480202 103.73983002 C368.21463223 109.11318293 368.22407871 114.4865092 368.23034668 119.85986328 C368.23761152 128.8812353 368.22806592 137.90247606 368.20898438 146.92382812 C368.18721794 157.33436413 368.19427013 167.74458671 368.21629 178.15511513 C368.23447716 187.1142729 368.23698612 196.07333666 368.22653532 205.03250694 C368.22031862 210.37428292 368.21941444 215.71591186 368.23268127 221.05767822 C368.24428748 226.08115465 368.23612722 231.10422935 368.21310425 236.12766266 C368.20784257 237.96458522 368.20928708 239.80154193 368.21815491 241.63845062 C368.27241713 254.02631286 367.58565536 264.59135777 359.6875 274.8125 C359.29175781 275.36292969 358.89601563 275.91335938 358.48828125 276.48046875 C352.19210059 284.65287516 343.46512542 289.42535618 333.4296875 291.38671875 C323.56342352 292.50928949 313.48773862 292.43280612 303.6875 290.8125 C303.378125 292.7615625 303.378125 292.7615625 303.0625 294.75 C300.83129472 304.63547893 293.34553051 313.19809241 284.9296875 318.57421875 C271.23243666 325.95929002 254.64377788 326.86154414 239.6875 322.8125 C227.14486139 317.92960711 218.95417407 310.71918074 212.6875 298.8125 C202.9876142 273.96072363 209.6875 222.62944819 209.6875 211.8125 C145.0075 211.8125 80.3275 211.8125 13.6875 211.8125 C13.6875 233.5925 13.6875 255.3725 13.6875 277.8125 C10.09498044 292.18257822 5.88674653 302.07016349 -6.49609375 310.19921875 C-15.7611307 315.50637584 -24.44670316 316.19014713 -34.9375 316.3125 C-35.98623291 316.33111084 -37.03496582 316.34972168 -38.11547852 316.36889648 C-50.25225529 316.27079651 -60.56918342 312.05586002 -69.47265625 303.8125 C-75.34876871 297.66180285 -78.64156999 290.82529003 -81.3125 282.8125 C-82.16368408 282.83344727 -83.01486816 282.85439453 -83.8918457 282.87597656 C-87.10306666 282.94486162 -90.31390643 282.99464051 -93.52563477 283.03222656 C-94.905645 283.0521267 -96.28557337 283.0792574 -97.6652832 283.11425781 C-112.02179388 283.46886832 -122.51582837 280.53454179 -133.3125 270.8125 C-144.00686582 258.84830225 -144.90375435 246.19119791 -144.83007812 230.9296875 C-144.83550641 229.03460148 -144.84263302 227.13951969 -144.85131836 225.2444458 C-144.86947057 220.12458084 -144.86251775 215.00504023 -144.84980202 209.88516998 C-144.83963223 204.51181707 -144.84907871 199.1384908 -144.85534668 193.76513672 C-144.86261152 184.7437647 -144.85306592 175.72252394 -144.83398438 166.70117188 C-144.81221794 156.29063587 -144.81927013 145.88041329 -144.84129 135.46988487 C-144.85947716 126.5107271 -144.86198612 117.55166334 -144.85153532 108.59249306 C-144.84531862 103.25071708 -144.84441444 97.90908814 -144.85768127 92.56732178 C-144.86928748 87.54384535 -144.86112722 82.52077065 -144.83810425 77.49733734 C-144.83284257 75.66041478 -144.83428708 73.82345807 -144.84315491 71.98654938 C-144.89741713 59.59868714 -144.21065536 49.03364223 -136.3125 38.8125 C-135.71888672 37.98685547 -135.71888672 37.98685547 -135.11328125 37.14453125 C-128.81710059 28.97212484 -120.09012542 24.19964382 -110.0546875 22.23828125 C-100.18842352 21.11571051 -90.11273862 21.19219388 -80.3125 22.8125 C-80.10625 21.513125 -79.9 20.21375 -79.6875 18.875 C-77.45629472 8.98952107 -69.97053051 0.42690759 -61.5546875 -4.94921875 C-42.37441185 -15.29054231 -17.11323314 -13.71696529 0 0 Z M-46.3125 24.8125 C-50.08276688 29.47023504 -49.73677017 33.99867161 -49.70018005 39.71250916 C-49.70556559 40.71710177 -49.71095113 41.72169438 -49.71649987 42.75672919 C-49.73082084 46.12692476 -49.72366537 49.49672985 -49.71655273 52.86694336 C-49.72225411 55.28156348 -49.72921747 57.69618091 -49.73735046 60.11079407 C-49.75345522 65.99099049 -49.75537732 71.87108826 -49.75013756 77.75129502 C-49.74609569 82.53088396 -49.74753962 87.31044133 -49.75288582 92.09002876 C-49.75363424 92.77035784 -49.75438266 93.45068692 -49.75515376 94.15163203 C-49.75668525 95.53373198 -49.75822359 96.91583192 -49.75976873 98.29793186 C-49.77349583 111.25820061 -49.76805462 124.218409 -49.75658352 137.17867637 C-49.74665084 149.03397467 -49.75959197 160.88911691 -49.78351771 172.74439114 C-49.80790338 184.91934826 -49.81751791 197.09423268 -49.81086498 209.26921374 C-49.80737158 216.10377164 -49.80961277 222.93820951 -49.82711601 229.77274895 C-49.84336897 236.19876461 -49.8386646 242.62455544 -49.81981087 249.05056572 C-49.81611623 251.41044558 -49.81925877 253.7703474 -49.82969666 256.13020706 C-49.84284783 259.3489872 -49.83141028 262.56677035 -49.81370544 265.7855072 C-49.82331045 266.72179284 -49.83291546 267.65807847 -49.84281152 268.62273639 C-49.77836847 274.30764942 -49.0721051 277.46936006 -45.3125 281.8125 C-40.13484337 284.59075478 -34.04998502 284.36746507 -28.3125 283.8125 C-24.04431487 282.28814817 -21.48487488 280.79624151 -19.3125 276.8125 C-18.85562618 273.5154348 -18.89952241 270.23616763 -18.91809082 266.91212463 C-18.91199972 265.89543023 -18.90590861 264.87873582 -18.89963293 263.83123249 C-18.88294367 260.41414985 -18.88778727 256.99743743 -18.89257812 253.58032227 C-18.88524128 251.13467011 -18.87665618 248.68902143 -18.86691284 246.24337769 C-18.84696231 240.2838241 -18.84131842 234.32441684 -18.84310073 228.36484284 C-18.8444079 223.52133784 -18.84060652 218.67786322 -18.83317566 213.83436394 C-18.83107649 212.43967325 -18.82897889 211.04498255 -18.82688284 209.65029186 C-18.82531755 208.60905844 -18.82531755 208.60905844 -18.82372063 207.54679 C-18.80481522 194.41630978 -18.80586944 181.28588542 -18.81268996 168.15539723 C-18.81826629 156.14090227 -18.79743684 144.12662049 -18.76432949 132.11217535 C-18.73060444 119.77792083 -18.71542262 107.44376847 -18.72004652 95.10946697 C-18.72229235 88.18379052 -18.7170317 81.25831112 -18.69215393 74.33267403 C-18.66896345 67.82127867 -18.67170903 61.31025355 -18.69208145 54.79882431 C-18.69550332 52.40627004 -18.69035218 50.01368621 -18.67609787 47.62117195 C-18.65800698 44.36020998 -18.67058012 41.10077354 -18.69104004 37.83985901 C-18.67852219 36.88830557 -18.66600434 35.93675213 -18.65310717 34.95636374 C-18.71489523 30.37745856 -18.81010762 28.45025351 -21.72634125 24.74829006 C-25.7797379 21.71424393 -28.69746726 21.6000789 -33.625 21.5625 C-34.94113281 21.53671875 -36.25726563 21.5109375 -37.61328125 21.484375 C-41.52931997 21.83173218 -43.29009323 22.35177944 -46.3125 24.8125 Z M244.05590057 34.30310154 C241.88313143 38.28756607 242.26813888 42.2460784 242.29309082 46.71287537 C242.28699972 47.72956977 242.28090861 48.74626418 242.27463293 49.79376751 C242.25794367 53.21085015 242.26278727 56.62756257 242.26757812 60.04467773 C242.26024128 62.49032989 242.25165618 64.93597857 242.24191284 67.38162231 C242.22196231 73.3411759 242.21631842 79.30058316 242.21810073 85.26015716 C242.2194079 90.10366216 242.21560652 94.94713678 242.20817566 99.79063606 C242.20607649 101.18532675 242.20397889 102.58001745 242.20188284 103.97470814 C242.20083931 104.66886375 242.19979578 105.36301937 242.19872063 106.07821 C242.17981522 119.20869022 242.18086944 132.33911458 242.18768996 145.46960277 C242.19326629 157.48409773 242.17243684 169.49837951 242.13932949 181.51282465 C242.10560444 193.84707917 242.09042262 206.18123153 242.09504652 218.51553303 C242.09729235 225.44120948 242.0920317 232.36668888 242.06715393 239.29232597 C242.04396345 245.80372133 242.04670903 252.31474645 242.06708145 258.82617569 C242.07050332 261.21872996 242.06535218 263.61131379 242.05109787 266.00382805 C242.03300698 269.26479002 242.04558012 272.52422646 242.06604004 275.78514099 C242.05352219 276.73669443 242.04100434 277.68824787 242.02810717 278.66863626 C242.08989523 283.24754144 242.18510762 285.17474649 245.10134125 288.87670994 C249.1547379 291.91075607 252.07246726 292.0249211 257 292.0625 C258.31613281 292.08828125 259.63226563 292.1140625 260.98828125 292.140625 C264.90431997 291.79326782 266.66509323 291.27322056 269.6875 288.8125 C273.45776688 284.15476496 273.11177017 279.62632839 273.07518005 273.91249084 C273.08056559 272.90789823 273.08595113 271.90330562 273.09149987 270.86827081 C273.10582084 267.49807524 273.09866537 264.12827015 273.09155273 260.75805664 C273.09725411 258.34343652 273.10421747 255.92881909 273.11235046 253.51420593 C273.12845522 247.63400951 273.13037732 241.75391174 273.12513756 235.87370498 C273.12109569 231.09411604 273.12253962 226.31455867 273.12788582 221.53497124 C273.12900845 220.51447762 273.12900845 220.51447762 273.13015376 219.47336797 C273.13168525 218.09126802 273.13322359 216.70916808 273.13476873 215.32706814 C273.14849583 202.36679939 273.14305462 189.406591 273.13158352 176.44632363 C273.12165084 164.59102533 273.13459197 152.73588309 273.15851771 140.88060886 C273.18290338 128.70565174 273.19251791 116.53076732 273.18586498 104.35578626 C273.18237158 97.52122836 273.18461277 90.68679049 273.20211601 83.85225105 C273.21836897 77.42623539 273.2136646 71.00044456 273.19481087 64.57443428 C273.19111623 62.21455442 273.19425877 59.8546526 273.20469666 57.49479294 C273.21784783 54.2760128 273.20641028 51.05822965 273.18870544 47.8394928 C273.19831045 46.90320716 273.20791546 45.96692153 273.21781152 45.00226361 C273.15336847 39.31735058 272.4471051 36.15563994 268.6875 31.8125 C261.07724284 27.72894738 250.44223018 28.46865922 244.05590057 34.30310154 Z M-111.3125 59.8125 C-112.49844551 63.37033653 -112.44747686 66.20889701 -112.45967102 69.96638489 C-112.46334771 70.69975419 -112.4670244 71.4331235 -112.4708125 72.18871611 C-112.48184992 74.6529174 -112.48569325 77.11707652 -112.48950195 79.58129883 C-112.49576649 81.34538405 -112.50241328 83.10946796 -112.50941467 84.87355042 C-112.52682356 89.6711387 -112.53737586 94.46871701 -112.5456202 99.26632905 C-112.55076998 102.26297507 -112.55684569 105.25961799 -112.56313133 108.25626183 C-112.58218203 117.63004134 -112.59641414 127.00381297 -112.6047433 136.37760812 C-112.61452009 147.20209729 -112.64085167 158.0263822 -112.68124419 168.85079938 C-112.71138727 177.21521741 -112.72621041 185.57957681 -112.72952431 193.94404811 C-112.7318766 198.940974 -112.74086042 203.93768165 -112.76598549 208.93454933 C-112.78924 213.63529756 -112.79351002 218.33568343 -112.78322411 223.03647423 C-112.78272802 224.76101765 -112.78906994 226.48557875 -112.80278015 228.21006775 C-112.82046425 230.56636808 -112.81341116 232.92136303 -112.80024719 235.27766418 C-112.80263555 236.59561887 -112.8050239 237.91357355 -112.80748463 239.27146626 C-112.22885541 243.41087881 -110.89697277 245.56989668 -108.3125 248.8125 C-104.94985709 251.31644225 -101.5362021 251.11177838 -97.4375 251.125 C-95.64699219 251.15013672 -95.64699219 251.15013672 -93.8203125 251.17578125 C-89.96577002 250.77659144 -87.58954565 249.85229372 -84.3125 247.8125 C-81.91808682 244.22088023 -82.02411369 241.64730685 -82.03834534 237.50003052 C-82.03310866 236.74962144 -82.02787198 235.99921236 -82.02247661 235.22606361 C-82.00743974 232.70420377 -82.00677066 230.18254617 -82.00610352 227.66064453 C-81.99848452 225.85552628 -81.99005748 224.05041129 -81.98088074 222.24530029 C-81.95890364 217.33620165 -81.95013257 212.4271653 -81.94505429 207.51802301 C-81.94141462 204.452365 -81.93517662 201.3867234 -81.9280529 198.32107162 C-81.90354761 187.6298933 -81.8905041 176.93876357 -81.88696289 166.24755859 C-81.88332639 156.27556801 -81.85342558 146.303885 -81.81155831 136.33198845 C-81.77689125 127.7756466 -81.76141507 119.21940685 -81.76071686 110.66299522 C-81.75992284 105.55036971 -81.75112705 100.43805737 -81.72271919 95.3255043 C-81.69659982 90.51716556 -81.69429894 85.70940098 -81.71037483 80.90102386 C-81.7121942 79.13574602 -81.70545472 77.37043562 -81.68955612 75.60522842 C-81.66917724 73.19578077 -81.67959687 70.78835754 -81.69776917 68.37893677 C-81.6845692 67.67961285 -81.67136923 66.98028893 -81.65776926 66.25977337 C-81.72487222 62.36714939 -82.22558751 60.91466414 -84.78842068 57.9020977 C-85.62136685 57.21253046 -86.45431303 56.52296322 -87.3125 55.8125 C-87.6425 55.4825 -87.9725 55.1525 -88.3125 54.8125 C-91.24567244 54.60468414 -94.12609315 54.48781227 -97.0625 54.4375 C-98.28066406 54.38142578 -98.28066406 54.38142578 -99.5234375 54.32421875 C-105.1811353 54.24128833 -107.75746246 55.03979212 -111.3125 59.8125 Z M307.6875 65.8125 C305.29308682 69.40411977 305.39911369 71.97769315 305.41334534 76.12496948 C305.40810866 76.87537856 305.40287198 77.62578764 305.39747661 78.39893639 C305.38243974 80.92079623 305.38177066 83.44245383 305.38110352 85.96435547 C305.37348452 87.76947372 305.36505748 89.57458871 305.35588074 91.37969971 C305.33390364 96.28879835 305.32513257 101.1978347 305.32005429 106.10697699 C305.31641462 109.172635 305.31017662 112.2382766 305.3030529 115.30392838 C305.27854761 125.9951067 305.2655041 136.68623643 305.26196289 147.37744141 C305.25832639 157.34943199 305.22842558 167.321115 305.18655831 177.29301155 C305.15189125 185.8493534 305.13641507 194.40559315 305.13571686 202.96200478 C305.13492284 208.07463029 305.12612705 213.18694263 305.09771919 218.2994957 C305.07159982 223.10783444 305.06929894 227.91559902 305.08537483 232.72397614 C305.0871942 234.48925398 305.08045472 236.25456438 305.06455612 238.01977158 C305.04417724 240.42921923 305.05459687 242.83664246 305.07276917 245.24606323 C305.0595692 245.94538715 305.04636923 246.64471107 305.03276926 247.36522663 C305.09987222 251.25785061 305.60058751 252.71033586 308.16342068 255.7229023 C308.99636685 256.41246954 309.82931303 257.10203678 310.6875 257.8125 C311.0175 258.1425 311.3475 258.4725 311.6875 258.8125 C314.62067244 259.02031586 317.50109315 259.13718773 320.4375 259.1875 C321.65566406 259.24357422 321.65566406 259.24357422 322.8984375 259.30078125 C327.30171084 259.36532434 329.11134328 259.25879756 332.703125 256.4765625 C335.90818658 252.17370423 335.81765449 248.90206112 335.83467102 243.65861511 C335.83834771 242.92524581 335.8420244 242.1918765 335.8458125 241.43628389 C335.85684992 238.9720826 335.86069325 236.50792348 335.86450195 234.04370117 C335.87076649 232.27961595 335.87741328 230.51553204 335.88441467 228.75144958 C335.90182356 223.9538613 335.91237586 219.15628299 335.9206202 214.35867095 C335.92576998 211.36202493 335.93184569 208.36538201 335.93813133 205.36873817 C335.95718203 195.99495866 335.97141414 186.62118703 335.9797433 177.24739188 C335.98952009 166.42290271 336.01585167 155.5986178 336.05624419 144.77420062 C336.08638727 136.40978259 336.10121041 128.04542319 336.10452431 119.68095189 C336.1068766 114.684026 336.11586042 109.68731835 336.14098549 104.69045067 C336.16424 99.98970244 336.16851002 95.28931657 336.15822411 90.58852577 C336.15772802 88.86398235 336.16406994 87.13942125 336.17778015 85.41493225 C336.19546425 83.05863192 336.18841116 80.70363697 336.17524719 78.34733582 C336.17763555 77.02938113 336.1800239 75.71142645 336.18248463 74.35353374 C335.60385541 70.21412119 334.27197277 68.05510332 331.6875 64.8125 C328.32485709 62.30855775 324.9112021 62.51322162 320.8125 62.5 C319.02199219 62.47486328 319.02199219 62.47486328 317.1953125 62.44921875 C313.34077002 62.84840856 310.96454565 63.77270628 307.6875 65.8125 Z M13.6875 140.8125 C13.6875 153.6825 13.6875 166.5525 13.6875 179.8125 C78.3675 179.8125 143.0475 179.8125 209.6875 179.8125 C209.6875 166.9425 209.6875 154.0725 209.6875 140.8125 C145.0075 140.8125 80.3275 140.8125 13.6875 140.8125 Z " fill="#000000" transform="translate(144.3125,99.1875)"/>
</svg>
