<?xml version="1.0" encoding="UTF-8"?>
<svg version="1.1" xmlns="http://www.w3.org/2000/svg" width="512" height="512">
<path d="M0 0 C1.25553771 -0.00445784 2.51107542 -0.00891569 3.80465972 -0.01350862 C5.21090946 -0.01341931 6.61715918 -0.01322944 8.02340889 -0.01294994 C9.50721334 -0.01624755 10.9910169 -0.0199729 12.4748193 -0.02409142 C16.56714608 -0.03413108 20.65945818 -0.03783136 24.75179553 -0.04048073 C29.15951905 -0.0443779 33.56723089 -0.05395654 37.97494698 -0.0626936 C48.62605658 -0.08247329 59.27716716 -0.09252552 69.92829055 -0.10142139 C74.93964334 -0.10580129 79.95099508 -0.11116882 84.96234703 -0.11641026 C101.61301326 -0.13342303 118.26367883 -0.14791877 134.91435242 -0.155159 C139.23709171 -0.157069 143.559831 -0.15898932 147.88257027 -0.16094494 C149.49423188 -0.16167055 149.49423188 -0.16167055 151.13845231 -0.16241082 C168.556478 -0.17071696 185.97443515 -0.19606349 203.39243089 -0.22852562 C221.26027099 -0.26155569 239.1280762 -0.27960403 256.995947 -0.28280324 C267.03417531 -0.28497196 277.07230362 -0.29377346 287.11050224 -0.31926441 C295.65669145 -0.34091603 304.20275638 -0.3490492 312.7489699 -0.33929763 C317.11200059 -0.33473695 321.47477458 -0.33674113 325.83777046 -0.35605907 C329.82879273 -0.37357803 333.81936888 -0.37278573 337.81039514 -0.35716178 C339.25723946 -0.35476845 340.70411378 -0.35919781 342.15091203 -0.37099043 C344.11187565 -0.38598896 346.07299051 -0.37411027 348.03396606 -0.36076355 C349.12495759 -0.36174036 350.21594911 -0.36271717 351.34000099 -0.36372358 C354.81495806 0.25363121 355.96393435 1.41943353 358.14282417 4.13422108 C359.45385634 6.75628541 359.2718921 8.68865549 359.27704525 11.62661076 C359.28150309 12.80079697 359.28596094 13.97498318 359.29055387 15.1847508 C359.29027732 17.13674756 359.29027732 17.13674756 359.28999519 19.1281786 C359.29329294 20.51568732 359.29701832 21.90319509 359.30113667 23.29070163 C359.31117492 27.11693107 359.31487639 30.94314483 359.31752598 34.76938558 C359.32142364 38.89084655 359.33100234 43.01229503 359.33973885 47.13374805 C359.35951854 57.09372364 359.36957138 67.05370027 359.37846664 77.01369059 C359.38284708 81.70102132 359.38821452 86.38835091 359.39345551 91.07568073 C359.4104693 106.65233215 359.42496424 122.22898285 359.43220425 137.80564213 C359.43411422 141.84957601 359.43603454 145.89350988 359.43799019 149.93744373 C359.43847393 150.94257605 359.43895767 151.94770836 359.43945607 152.98329923 C359.44775917 169.27156723 359.47310015 185.55976186 359.50557087 201.84799781 C359.53861738 218.56097499 359.55665083 235.27391485 359.55984849 251.98692489 C359.56201582 261.37464461 359.57079706 270.76225733 359.59630966 280.14994526 C359.61798381 288.14381876 359.62608333 296.13755929 359.61634288 304.13145885 C359.6117886 308.21120685 359.61374953 312.2906803 359.63310432 316.37039089 C359.65066882 320.10493568 359.64979347 323.83900428 359.63420703 327.57355365 C359.63068974 329.56529635 359.64690728 331.55704366 359.6638115 333.54871774 C359.58583957 344.31296975 359.58583957 344.31296975 355.14282417 349.13422108 C354.67886224 349.64345139 354.21490031 350.15268171 353.73687893 350.67734325 C352.089498 352.44359242 350.3921104 354.14683334 348.67697334 355.84731007 C348.0297655 356.49693232 347.38255766 357.14655458 346.71573746 357.81586236 C344.55406577 359.98315281 342.38534348 362.14324393 340.21655464 364.30341053 C338.6621569 365.85888157 337.10819231 367.41478555 335.55462837 368.97108936 C331.34042739 373.19013278 327.12001102 377.40290781 322.89831495 381.61444974 C318.48370358 386.02027526 314.07436739 390.43137433 309.66433907 394.84178638 C302.26164755 402.24354179 294.85512144 409.64144336 287.44604683 417.03680897 C279.8200155 424.64873715 272.19751129 432.26417449 264.57885933 439.88348866 C264.10909573 440.35329221 263.63933213 440.82309577 263.15533327 441.3071358 C262.68638521 441.77612421 262.21743716 442.24511261 261.73427856 442.72831279 C253.49917056 450.96407516 245.26116803 459.19693608 237.02158165 467.42821789 C233.51126084 470.93500149 230.0017966 474.44263907 226.49297905 477.95092678 C222.36677342 482.07613082 218.23803732 486.19878543 214.10729408 490.31944561 C212.5882327 491.83557681 211.07002575 493.35256462 209.55271721 494.87045002 C207.48901595 496.93463911 205.42228547 498.99574518 203.35470772 501.0560503 C202.74849205 501.66381457 202.14227638 502.27157884 201.51769054 502.89776021 C196.58358348 507.80303959 194.07378206 508.28300692 187.29849434 508.2813921 C186.06897342 508.28690713 186.06897342 508.28690713 184.8146137 508.29253358 C182.05242892 508.30359658 179.29028173 508.30741865 176.52807808 508.31122303 C174.55400154 508.31748561 172.57992618 508.32413222 170.60585213 508.33113575 C165.23191053 508.34856236 159.85797785 508.35910161 154.48401499 508.36734128 C151.12942187 508.37248693 147.77483155 508.3785628 144.4202404 508.38485241 C133.93267087 508.4039074 123.44510841 508.41813901 112.9575249 508.42646438 C100.83577393 508.43624497 88.71420518 508.46258469 76.59251845 508.50296527 C67.23283117 508.53307934 57.87319627 508.54792869 48.51346147 508.55124539 C42.91855697 508.55360088 37.32384707 508.56262624 31.72899437 508.58770657 C26.46768702 508.61091058 21.20670344 508.61525152 15.94535828 508.60494518 C14.01195705 508.60444787 12.0785403 508.61082551 10.14518738 508.62450123 C7.51010606 508.64210114 4.87620182 508.63517333 2.24112129 508.62196827 C1.47205629 508.63293752 0.70299129 508.64390676 -0.08937871 508.65520841 C-3.60271789 508.61256041 -5.49004279 508.42050105 -8.3008194 506.22873688 C-11.24815976 502.26226053 -10.99932745 498.93803865 -10.98860359 494.15587616 C-10.99065623 493.31763311 -10.99270886 492.47939005 -10.99482369 491.61574569 C-11.00052717 488.77624257 -10.99903235 485.93678743 -10.99761772 483.09727955 C-11.00019944 481.05321535 -11.00321206 479.00915165 -11.00662112 476.96508867 C-11.01471706 471.3240773 -11.01648213 465.68307865 -11.01721859 460.04206216 C-11.01906464 453.96764016 -11.02660968 447.89322482 -11.03335381 441.81880665 C-11.04766556 427.83206932 -11.05346598 413.84533508 -11.05804575 399.85859227 C-11.06038005 392.95011854 -11.06398251 386.04164565 -11.06774113 379.13317257 C-11.08057775 355.49475295 -11.09129705 331.8563338 -11.09474373 308.21791077 C-11.09496536 306.73345912 -11.09518715 305.24900748 -11.09540908 303.76455583 C-11.09562972 302.27647431 -11.0958502 300.78839279 -11.09607053 299.30031127 C-11.09651309 296.31485347 -11.0969602 293.32939567 -11.0974102 290.34393787 C-11.09751959 289.60371547 -11.09762898 288.86349306 -11.09774169 288.10083967 C-11.10137335 264.09224327 -11.11729692 240.08367705 -11.14060057 216.07509222 C-11.16518119 190.70461603 -11.17891574 165.33415709 -11.18011165 139.96366864 C-11.18028311 137.1801143 -11.18049854 134.39655997 -11.18074608 131.61300564 C-11.18080185 130.92759312 -11.18085762 130.24218059 -11.18091507 129.53599799 C-11.18206704 118.49252367 -11.19310139 107.44908024 -11.20763313 96.40561636 C-11.22197975 85.3112318 -11.22499243 74.21687862 -11.21719316 63.12248512 C-11.21327418 57.10879654 -11.21427687 51.09521219 -11.2282505 45.08153629 C-11.24091482 39.5812195 -11.23985807 34.08108608 -11.22765979 28.58076981 C-11.22568977 26.58613568 -11.22884083 24.59148888 -11.23750415 22.59687259 C-11.24850304 19.89438585 -11.24117563 17.19255704 -11.22911263 14.49008942 C-11.23670782 13.70804084 -11.24430301 12.92599227 -11.25212836 12.12024525 C-11.20853144 7.6241915 -10.65829441 4.70218808 -7.85717583 1.13422108 C-5.14777333 -0.22048017 -3.03512838 0.00497727 0 0 Z M7.14282417 18.13422108 C7.14282417 173.89422108 7.14282417 329.65422108 7.14282417 490.13422108 C64.89282417 490.13422108 122.64282417 490.13422108 182.14282417 490.13422108 C182.35297275 439.96191628 182.35297275 439.96191628 182.53076363 389.78949451 C182.58069038 380.09564686 182.58069038 380.09564686 182.60783577 375.56055164 C182.62580528 372.38654565 182.63538557 369.21263207 182.63994026 366.03857899 C182.64601962 361.99212429 182.66631377 357.94597722 182.6969856 353.89963675 C182.70581697 352.41322203 182.70961747 350.92676708 182.70786345 349.44032717 C182.70621346 347.4347527 182.72462139 345.42919141 182.74409676 343.42371082 C182.74870572 342.29912338 182.75331469 341.17453594 182.75806332 340.01587009 C183.19143029 336.77018775 183.80083342 335.40062991 186.14282417 333.13422108 C236.27102583 320.60217066 289.47298966 331.47640541 341.14282417 331.13422108 C341.14282417 227.84422108 341.14282417 124.55422108 341.14282417 18.13422108 C230.92282417 18.13422108 120.70282417 18.13422108 7.14282417 18.13422108 Z M200.14282417 349.13422108 C200.14282417 391.37422108 200.14282417 433.61422108 200.14282417 477.13422108 C204.48824751 473.4095725 208.56096122 469.84135787 212.57823372 465.82579517 C213.07832453 465.32726435 213.57841534 464.82873354 214.09366041 464.31509572 C215.74644855 462.66625388 217.39568959 461.01391202 219.04492378 459.361516 C220.23785287 458.16994368 221.43099421 456.97858382 222.62433052 455.78741932 C225.84722276 452.56906564 229.06696854 449.34758163 232.28600192 446.12536883 C235.65706907 442.7517631 239.03058303 439.38060551 242.40370369 436.00905323 C248.06016095 430.35441179 253.71451374 424.69767242 259.36767769 419.03973866 C265.91142246 412.4905366 272.45878324 405.9449661 279.00800318 399.40123957 C284.63201676 393.78175506 290.25409051 388.16033541 295.87452894 382.53727514 C299.23134168 379.17890051 302.58883333 375.82121212 305.94807434 372.46526623 C309.09974152 369.3164753 312.24897616 366.16527203 315.39630318 363.01214314 C316.55486307 361.85225499 317.71428587 360.69322806 318.87460709 359.53510189 C320.45081742 357.96160011 322.02395335 356.38508984 323.59630013 354.80772877 C324.479504 353.92414786 325.36270788 353.04056696 326.27267551 352.13021088 C328.25677895 350.46846844 328.25677895 350.46846844 328.14282417 349.13422108 C285.90282417 349.13422108 243.66282417 349.13422108 200.14282417 349.13422108 Z " fill="#000000" transform="translate(81.85717582702637,1.865778923034668)"/>
<path d="M0 0 C0.81745477 -0.00779995 1.63490953 -0.01559991 2.47713566 -0.02363622 C5.21430184 -0.04356848 7.95007955 -0.02778735 10.68725586 -0.01205444 C12.65030733 -0.01883003 14.61335244 -0.02773282 16.5763855 -0.03860474 C21.90699197 -0.06141157 27.23711495 -0.05255588 32.56772995 -0.03670931 C38.14412497 -0.02405758 43.72047837 -0.03578841 49.296875 -0.04364014 C58.66177815 -0.0527388 68.02648419 -0.04074302 77.39135742 -0.01693726 C88.22115277 0.01027432 99.05047748 0.00146032 109.88026142 -0.02606928 C119.17552121 -0.04875309 128.47063925 -0.05196396 137.76591778 -0.03887594 C143.31888736 -0.03107747 148.87163567 -0.03005085 154.42459106 -0.04655838 C159.64503148 -0.06099317 164.86486465 -0.05099922 170.08523941 -0.0220871 C172.00207638 -0.01547103 173.91896438 -0.01738283 175.8357811 -0.02840042 C178.45094558 -0.0420471 181.06415937 -0.02495207 183.67919922 0 C184.8195215 -0.01673041 184.8195215 -0.01673041 185.98288059 -0.03379881 C189.96954628 0.04008509 191.67106103 0.49804576 194.80812073 3.04569435 C196.77747257 5.55573412 197.52741 6.51952282 197.46459961 9.63491821 C197.47749023 10.27429321 197.49038086 10.91366821 197.50366211 11.57241821 C196.4232491 14.92805392 194.55337057 16.43102812 191.83959961 18.63491821 C188.92271578 19.12765506 186.59075607 19.31255378 183.67919922 19.26983643 C182.86174445 19.27763638 182.04428968 19.28543633 181.20206356 19.29347265 C178.46489738 19.3134049 175.72911967 19.29762377 172.99194336 19.28189087 C171.02889189 19.28866645 169.06584678 19.29756925 167.10281372 19.30844116 C161.77220725 19.33124799 156.44208427 19.3223923 151.11146927 19.30654573 C145.53507425 19.293894 139.95872085 19.30562483 134.38232422 19.31347656 C125.01742107 19.32257522 115.65271503 19.31057944 106.2878418 19.28677368 C95.45804645 19.2595621 84.62872174 19.26837611 73.7989378 19.29590571 C64.50367801 19.31858952 55.20855996 19.32180039 45.91328144 19.30871236 C40.36031186 19.30091389 34.80756355 19.29988728 29.25460815 19.31639481 C24.03416774 19.33082959 18.81433457 19.32083565 13.59395981 19.29192352 C11.67712284 19.28530745 9.76023484 19.28721926 7.84341812 19.29823685 C5.22825364 19.31188352 2.61503985 19.2947885 0 19.26983643 C-1.14032228 19.28656684 -1.14032228 19.28656684 -2.30368137 19.30363524 C-6.29034706 19.22975134 -7.99186182 18.77179067 -11.12892151 16.22414207 C-13.09827335 13.7141023 -13.84821078 12.75031361 -13.78540039 9.63491821 C-13.79829102 8.99554321 -13.81118164 8.35616821 -13.82446289 7.69741821 C-11.63687922 0.90304071 -6.3425964 -0.09305637 0 0 Z " fill="#000000" transform="translate(164.160400390625,246.36508178710938)"/>
<path d="M0 0 C0.81745477 -0.00779995 1.63490953 -0.01559991 2.47713566 -0.02363622 C5.21430184 -0.04356848 7.95007955 -0.02778735 10.68725586 -0.01205444 C12.65030733 -0.01883003 14.61335244 -0.02773282 16.5763855 -0.03860474 C21.90699197 -0.06141157 27.23711495 -0.05255588 32.56772995 -0.03670931 C38.14412497 -0.02405758 43.72047837 -0.03578841 49.296875 -0.04364014 C58.66177815 -0.0527388 68.02648419 -0.04074302 77.39135742 -0.01693726 C88.22115277 0.01027432 99.05047748 0.00146032 109.88026142 -0.02606928 C119.17552121 -0.04875309 128.47063925 -0.05196396 137.76591778 -0.03887594 C143.31888736 -0.03107747 148.87163567 -0.03005085 154.42459106 -0.04655838 C159.64503148 -0.06099317 164.86486465 -0.05099922 170.08523941 -0.0220871 C172.00207638 -0.01547103 173.91896438 -0.01738283 175.8357811 -0.02840042 C178.45094558 -0.0420471 181.06415937 -0.02495207 183.67919922 0 C184.8195215 -0.01673041 184.8195215 -0.01673041 185.98288059 -0.03379881 C189.96954628 0.04008509 191.67106103 0.49804576 194.80812073 3.04569435 C196.77747257 5.55573412 197.52741 6.51952282 197.46459961 9.63491821 C197.47749023 10.27429321 197.49038086 10.91366821 197.50366211 11.57241821 C196.4232491 14.92805392 194.55337057 16.43102812 191.83959961 18.63491821 C188.92271578 19.12765506 186.59075607 19.31255378 183.67919922 19.26983643 C182.86174445 19.27763638 182.04428968 19.28543633 181.20206356 19.29347265 C178.46489738 19.3134049 175.72911967 19.29762377 172.99194336 19.28189087 C171.02889189 19.28866645 169.06584678 19.29756925 167.10281372 19.30844116 C161.77220725 19.33124799 156.44208427 19.3223923 151.11146927 19.30654573 C145.53507425 19.293894 139.95872085 19.30562483 134.38232422 19.31347656 C125.01742107 19.32257522 115.65271503 19.31057944 106.2878418 19.28677368 C95.45804645 19.2595621 84.62872174 19.26837611 73.7989378 19.29590571 C64.50367801 19.31858952 55.20855996 19.32180039 45.91328144 19.30871236 C40.36031186 19.30091389 34.80756355 19.29988728 29.25460815 19.31639481 C24.03416774 19.33082959 18.81433457 19.32083565 13.59395981 19.29192352 C11.67712284 19.28530745 9.76023484 19.28721926 7.84341812 19.29823685 C5.22825364 19.31188352 2.61503985 19.2947885 0 19.26983643 C-1.14032228 19.28656684 -1.14032228 19.28656684 -2.30368137 19.30363524 C-6.29034706 19.22975134 -7.99186182 18.77179067 -11.12892151 16.22414207 C-13.09827335 13.7141023 -13.84821078 12.75031361 -13.78540039 9.63491821 C-13.79829102 8.99554321 -13.81118164 8.35616821 -13.82446289 7.69741821 C-11.63687922 0.90304071 -6.3425964 -0.09305637 0 0 Z " fill="#000000" transform="translate(164.160400390625,143.36508178710938)"/>
<path d="M0 0 C0.82547301 -0.00623996 1.65094603 -0.01247993 2.50143337 -0.01890898 C5.27150855 -0.03488251 8.04070908 -0.02221788 10.81079102 -0.00964355 C12.79501866 -0.01506274 14.77924228 -0.02218425 16.76345825 -0.03088379 C22.15598001 -0.04914423 27.54819621 -0.04203832 32.94072342 -0.02936745 C38.57898036 -0.0192539 44.2172108 -0.02862854 49.85546875 -0.03491211 C59.32467353 -0.04219331 68.7937536 -0.03258838 78.26293945 -0.0135498 C89.21707497 0.00821978 100.17091271 0.00116875 111.12504101 -0.02085543 C120.5230092 -0.03899593 129.92088765 -0.04157434 139.31886768 -0.03110075 C144.93494868 -0.02485841 150.55088962 -0.02405057 156.16696167 -0.0372467 C161.44639937 -0.04878489 166.72545242 -0.04081651 172.00484848 -0.01766968 C173.9446842 -0.01237173 175.88455218 -0.01391483 177.82437515 -0.02272034 C180.46815485 -0.03361664 183.11069433 -0.01998441 185.75439453 0 C186.52598624 -0.00892289 187.29757795 -0.01784577 188.09255123 -0.02703905 C191.60760792 0.02466491 193.52120297 0.23558412 196.35166931 2.40100861 C198.58475028 5.48514499 198.43800943 7.68744186 198.26782227 11.38293457 C197.87719727 13.50793457 197.87719727 13.50793457 196.12719727 16.00793457 C191.72078567 18.9455423 187.21769482 18.65243393 182.06483459 18.64164734 C181.27273557 18.6439129 180.48063654 18.64617845 179.66453451 18.64851266 C177.00762411 18.65484799 174.35076478 18.6540236 171.69384766 18.65319824 C169.79006382 18.65619 167.88628059 18.65959256 165.98249817 18.66337585 C160.80900735 18.6722177 155.63553306 18.67455403 150.46203542 18.67519164 C146.14528905 18.67614066 141.82854654 18.67981881 137.51180166 18.68336374 C127.32931761 18.69150875 117.1468424 18.6939479 106.96435547 18.6932373 C96.45452521 18.69263626 85.94474623 18.70319324 75.43492895 18.71898097 C66.41573407 18.73204756 57.39655598 18.73742158 48.3773517 18.7367819 C42.98874798 18.73652668 37.60018984 18.739391 32.21159554 18.74995995 C27.14484902 18.75962627 22.07819181 18.75973018 17.01144218 18.75244331 C15.15103399 18.7513957 13.29062027 18.75377083 11.43022156 18.75980377 C8.89222324 18.76750155 6.35453504 18.76289363 3.81654358 18.75517273 C2.71021665 18.76288807 2.71021665 18.76288807 1.58153969 18.77075928 C-3.28623104 18.73799628 -6.98615015 18.12094364 -10.90795898 15.16027832 C-12.47377827 13.0305627 -12.5558727 11.69744478 -12.56030273 9.07043457 C-12.57963867 8.30859863 -12.59897461 7.5467627 -12.61889648 6.76184082 C-11.15090544 0.09230671 -5.82856302 -0.06740302 0 0 Z " fill="#000000" transform="translate(163.122802734375,195.4920654296875)"/>
<path d="M0 0 C0.82547301 -0.00623996 1.65094603 -0.01247993 2.50143337 -0.01890898 C5.27150855 -0.03488251 8.04070908 -0.02221788 10.81079102 -0.00964355 C12.79501866 -0.01506274 14.77924228 -0.02218425 16.76345825 -0.03088379 C22.15598001 -0.04914423 27.54819621 -0.04203832 32.94072342 -0.02936745 C38.57898036 -0.0192539 44.2172108 -0.02862854 49.85546875 -0.03491211 C59.32467353 -0.04219331 68.7937536 -0.03258838 78.26293945 -0.0135498 C89.21707497 0.00821978 100.17091271 0.00116875 111.12504101 -0.02085543 C120.5230092 -0.03899593 129.92088765 -0.04157434 139.31886768 -0.03110075 C144.93494868 -0.02485841 150.55088962 -0.02405057 156.16696167 -0.0372467 C161.44639937 -0.04878489 166.72545242 -0.04081651 172.00484848 -0.01766968 C173.9446842 -0.01237173 175.88455218 -0.01391483 177.82437515 -0.02272034 C180.46815485 -0.03361664 183.11069433 -0.01998441 185.75439453 0 C186.52598624 -0.00892289 187.29757795 -0.01784577 188.09255123 -0.02703905 C191.60760792 0.02466491 193.52120297 0.23558412 196.35166931 2.40100861 C198.58475028 5.48514499 198.43800943 7.68744186 198.26782227 11.38293457 C197.87719727 13.50793457 197.87719727 13.50793457 196.12719727 16.00793457 C191.72078567 18.9455423 187.21769482 18.65243393 182.06483459 18.64164734 C181.27273557 18.6439129 180.48063654 18.64617845 179.66453451 18.64851266 C177.00762411 18.65484799 174.35076478 18.6540236 171.69384766 18.65319824 C169.79006382 18.65619 167.88628059 18.65959256 165.98249817 18.66337585 C160.80900735 18.6722177 155.63553306 18.67455403 150.46203542 18.67519164 C146.14528905 18.67614066 141.82854654 18.67981881 137.51180166 18.68336374 C127.32931761 18.69150875 117.1468424 18.6939479 106.96435547 18.6932373 C96.45452521 18.69263626 85.94474623 18.70319324 75.43492895 18.71898097 C66.41573407 18.73204756 57.39655598 18.73742158 48.3773517 18.7367819 C42.98874798 18.73652668 37.60018984 18.739391 32.21159554 18.74995995 C27.14484902 18.75962627 22.07819181 18.75973018 17.01144218 18.75244331 C15.15103399 18.7513957 13.29062027 18.75377083 11.43022156 18.75980377 C8.89222324 18.76750155 6.35453504 18.76289363 3.81654358 18.75517273 C2.71021665 18.76288807 2.71021665 18.76288807 1.58153969 18.77075928 C-3.28623104 18.73799628 -6.98615015 18.12094364 -10.90795898 15.16027832 C-12.47377827 13.0305627 -12.5558727 11.69744478 -12.56030273 9.07043457 C-12.57963867 8.30859863 -12.59897461 7.5467627 -12.61889648 6.76184082 C-11.15090544 0.09230671 -5.82856302 -0.06740302 0 0 Z " fill="#000000" transform="translate(163.122802734375,92.4920654296875)"/>
</svg>
