<?xml version="1.0" encoding="UTF-8"?>
<svg version="1.1" xmlns="http://www.w3.org/2000/svg" width="512" height="512">
<path d="M0 0 C3.6232138 1.23052544 5.21029406 1.92964696 7.3125 5.125 C8.16595445 8.92675166 7.78618756 11.24005935 5.94921875 14.671875 C4.12742126 17.5318143 2.23165894 20.329619 0.3125 23.125 C-4.41802303 30.48229995 -8.15312204 38.1287832 -11.6875 46.125 C-0.96082256 44.23899078 8.57182428 39.97723781 16.9375 32.90625 C20.17728834 30.47640874 22.29081525 30.48593107 26.21875 30.67578125 C28.3125 31.125 28.3125 31.125 30.875 33.25 C32.61514228 36.73028455 33.07963602 38.28931989 32.3125 42.125 C27.58164215 49.63871541 19.97015634 53.15444352 12.3125 57.125 C10.92998047 57.87330078 10.92998047 57.87330078 9.51953125 58.63671875 C4.06848804 61.38285701 -0.90520543 62.55872211 -6.875 63.4375 C-14.43240949 64.60558305 -18.07582973 67.14619574 -22.6875 73.125 C-28.91880862 80.62904499 -35.88971867 87.36447904 -42.86132812 94.171875 C-48.60152426 99.84140978 -53.80477603 105.70059074 -58.6875 112.125 C-57.48581486 115.40123612 -56.21919422 118.01541643 -54.03515625 120.734375 C-53.51163574 121.39727539 -52.98811523 122.06017578 -52.44873047 122.74316406 C-51.88814941 123.44666992 -51.32756836 124.15017578 -50.75 124.875 C-21.34142404 162.68952046 -3.93763517 208.02197281 -2.6875 256.125 C-2.64753906 257.13175781 -2.60757812 258.13851563 -2.56640625 259.17578125 C-1.24813624 318.96320368 -26.03560582 373.12475225 -65.83984375 416.46875 C-71.05101916 421.83977742 -76.82449214 426.4885951 -82.6875 431.125 C-84.18796875 432.33349609 -84.18796875 432.33349609 -85.71875 433.56640625 C-120.64369706 461.38825229 -164.74529584 479.63810925 -209.6875 479.4375 C-210.35525452 479.43534485 -211.02300903 479.4331897 -211.71099854 479.43096924 C-254.11448955 479.21351544 -297.26947177 466.58332234 -332.6875 443.125 C-333.58871582 442.5364624 -334.48993164 441.9479248 -335.41845703 441.34155273 C-346.62889985 433.98238457 -357.19616611 426.64368644 -366.6875 417.125 C-367.73469035 416.13299492 -368.78426814 415.14350541 -369.8359375 414.15625 C-382.12142077 402.4678251 -392.41385295 388.92584758 -400.6875 374.125 C-401.10209473 373.39394043 -401.51668945 372.66288086 -401.94384766 371.90966797 C-430.47900979 321.15425003 -437.54125604 260.97523042 -422.34375 204.83984375 C-414.28236834 176.39210246 -400.53661197 149.91668307 -381.6875 127.125 C-381.20249023 126.53847656 -380.71748047 125.95195312 -380.21777344 125.34765625 C-371.1624269 114.46974155 -361.76581479 104.9813929 -350.6875 96.125 C-349.53507812 95.15433594 -349.53507812 95.15433594 -348.359375 94.1640625 C-305.62977966 58.55606638 -248.1285 43.43726928 -193.3125 47.8125 C-152.19117833 51.58815945 -113.506895 66.73482078 -80.99975586 92.19140625 C-77.6771592 94.77139589 -74.75080492 96.81977012 -70.6875 98.125 C-70.01847656 97.38378906 -69.34945313 96.64257812 -68.66015625 95.87890625 C-61.89439744 88.44101245 -54.91261144 81.26253087 -47.74047852 74.21508789 C-43.71409549 70.23803268 -39.90140472 66.17194519 -36.26049805 61.83740234 C-34.72285411 60.1634873 -33.14947601 58.89100196 -31.3125 57.5625 C-27.68209623 54.05596828 -28.20923367 49.84119628 -28.06420898 45.05712891 C-27.62287798 33.90103679 -22.31330279 25.1010077 -16.8125 15.6875 C-16.31903076 14.83454346 -15.82556152 13.98158691 -15.31713867 13.1027832 C-7.54399231 0.25572855 -7.54399231 0.25572855 0 0 Z M-342.6875 112.125 C-343.92886719 113.20007813 -343.92886719 113.20007813 -345.1953125 114.296875 C-356.22882969 124.05064254 -365.99616702 134.26181156 -374.6875 146.125 C-375.10354492 146.69138184 -375.51958984 147.25776367 -375.94824219 147.84130859 C-388.09233385 164.62249791 -397.38352023 183.42290431 -403.6875 203.125 C-403.92017578 203.82802246 -404.15285156 204.53104492 -404.39257812 205.25537109 C-420.44756095 254.43804995 -414.69354092 309.40853121 -391.71118164 355.28320312 C-386.78417565 364.8534113 -381.29541867 373.63846643 -374.6875 382.125 C-374.04167969 382.99253906 -373.39585937 383.86007812 -372.73046875 384.75390625 C-338.6559494 428.77522809 -286.24520754 454.44006626 -231.7421875 461.43359375 C-182.06857545 466.88252037 -134.81844398 450.44997871 -95.90625 419.75 C-91.14022769 415.91197723 -86.63529517 411.81263464 -82.21435547 407.58447266 C-81.18434225 406.59991573 -80.14937541 405.6205186 -79.10986328 404.64599609 C-42.25311976 370.00805319 -21.03633804 319.38595685 -19.46875 269.07421875 C-18.45064266 217.79863068 -35.33263249 172.28987392 -66.6875 132.125 C-68.8378536 134.13245519 -70.3267712 136.0063725 -71.703125 138.6015625 C-72.06414307 139.26865234 -72.42516113 139.93574219 -72.79711914 140.62304688 C-73.17344482 141.32494141 -73.54977051 142.02683594 -73.9375 142.75 C-77.35679431 148.9983994 -81.01473935 154.71601662 -85.6875 160.125 C-83.39255975 165.00174802 -80.83803275 169.51757073 -77.9375 174.0625 C-54.52765205 211.48208135 -47.66059943 259.08632814 -57.32324219 301.94482422 C-62.24612479 322.51862855 -70.73431538 343.2449552 -83.6875 360.125 C-84.33074219 360.97449219 -84.97398437 361.82398438 -85.63671875 362.69921875 C-90.36387665 368.76372584 -95.4448627 374.50337688 -100.6875 380.125 C-101.38488281 380.87652344 -102.08226562 381.62804687 -102.80078125 382.40234375 C-128.6510893 409.29233512 -168.08308994 426.47626578 -205.328125 427.328125 C-220.00447421 427.47960661 -234.28616066 427.2427841 -248.6875 424.125 C-249.46561035 423.95871094 -250.2437207 423.79242188 -251.04541016 423.62109375 C-279.384484 417.34289893 -306.19586506 404.07303315 -327.45703125 384.19921875 C-329.49910319 382.30019913 -331.60201582 380.52662345 -333.75 378.75 C-338.71141302 374.40503509 -342.67810607 369.33922016 -346.6875 364.125 C-347.46996094 363.13113281 -348.25242187 362.13726562 -349.05859375 361.11328125 C-366.67919503 338.08760932 -375.86999219 311.5904522 -379.6875 283.125 C-379.85121094 281.90941406 -380.01492188 280.69382812 -380.18359375 279.44140625 C-383.96456348 241.30495849 -373.91548344 199.90428604 -350.6875 169.125 C-349.92695313 168.07183594 -349.16640625 167.01867187 -348.3828125 165.93359375 C-321.37752676 129.3809316 -280.55371914 104.9215204 -235.6875 98.125 C-194.88915061 92.31900586 -149.59812521 103.85402999 -115.6875 127.125 C-114.43259766 126.2896875 -114.43259766 126.2896875 -113.15234375 125.4375 C-104.58351361 119.79828005 -95.80854699 114.81326925 -86.6875 110.125 C-110.85890734 85.53540222 -147.45139545 72.47055927 -180.6875 66.125 C-181.87730469 65.89683594 -183.06710937 65.66867188 -184.29296875 65.43359375 C-240.71303225 56.63526324 -299.83247022 75.01067514 -342.6875 112.125 Z M-319.6875 157.125 C-320.36296875 157.72699219 -321.0384375 158.32898438 -321.734375 158.94921875 C-348.59928739 184.34295737 -363.5459763 223.27052101 -364.8125 259.72265625 C-365.20717955 284.76014001 -360.09944209 308.75496882 -348.6875 331.125 C-348.37055176 331.75196777 -348.05360352 332.37893555 -347.72705078 333.02490234 C-342.80277039 342.59521193 -336.6102045 350.92486244 -329.6875 359.125 C-328.84960938 360.11757813 -328.01171875 361.11015625 -327.1484375 362.1328125 C-321.52058152 368.54678169 -315.43773884 373.92460853 -308.6875 379.125 C-307.78644531 379.85332031 -306.88539063 380.58164062 -305.95703125 381.33203125 C-293.26053169 391.33161918 -278.91849338 398.80089169 -263.6875 404.125 C-262.15609375 404.67414063 -262.15609375 404.67414063 -260.59375 405.234375 C-223.60969507 417.13518476 -183.49859106 413.49965379 -148.890625 396.3515625 C-113.59593483 378.11976072 -88.17699204 345.18531591 -75.9934082 307.79443359 C-71.35921001 293.03506227 -69.45005409 278.69301589 -69.4375 263.25 C-69.43682526 262.5075705 -69.43615051 261.76514099 -69.43545532 261.00021362 C-69.4512747 250.05985461 -69.94101697 239.76623184 -72.6875 229.125 C-73.01989847 227.70190864 -73.35191417 226.27872783 -73.68359375 224.85546875 C-77.70578155 208.42973318 -85.49422824 180.65121616 -100.6875 171.125 C-102.56100354 172.83663283 -104.40941657 174.56607553 -106.25 176.3125 C-107.04954102 177.03663086 -107.04954102 177.03663086 -107.86523438 177.77539062 C-110.92488862 180.65956367 -110.92488862 180.65956367 -111.75390625 184.62109375 C-110.46332283 187.6513647 -108.87607423 190.24812868 -107.0625 193 C-88.79976818 221.80145561 -82.47492853 256.77604387 -89.4375 290.1875 C-90.12189328 293.18613681 -90.87767451 296.15791978 -91.6875 299.125 C-91.86796875 299.78790039 -92.0484375 300.45080078 -92.234375 301.13378906 C-99.4267632 326.60254941 -115.39770653 350.36419767 -136.6875 366.125 C-137.42742187 366.7025 -138.16734375 367.28 -138.9296875 367.875 C-159.56679665 383.29927535 -185.03543332 391.9817324 -210.6875 393.125 C-211.95207031 393.186875 -211.95207031 393.186875 -213.2421875 393.25 C-244.32498134 394.00581262 -276.16112702 383.61822077 -299.6875 363.125 C-300.51894531 362.41472656 -301.35039062 361.70445312 -302.20703125 360.97265625 C-322.46306105 343.26807721 -336.14972406 320.21066057 -342.6875 294.125 C-343.00589844 292.87460937 -343.32429688 291.62421875 -343.65234375 290.3359375 C-350.99824212 257.84008841 -344.2254841 222.23017452 -326.6875 194.125 C-321.46739314 186.16220133 -315.20984514 179.03639731 -308.6875 172.125 C-308.01460937 171.38765625 -307.34171875 170.6503125 -306.6484375 169.890625 C-284.01808716 145.98890666 -250.01156045 132.07697798 -217.3203125 130.921875 C-191.58562492 130.47626499 -165.13449143 136.23769778 -144.11328125 151.68359375 C-142.91251953 152.39708984 -142.91251953 152.39708984 -141.6875 153.125 C-137.9560788 151.88119293 -137.05559385 150.3446681 -134.6875 147.25 C-132.47494614 144.37535616 -130.32854996 141.6174909 -127.6875 139.125 C-192.80465548 101.38956562 -263.03464384 106.21085404 -319.6875 157.125 Z M-85.6875 128.125 C-94.97824765 132.95157635 -102.25866796 138.81798908 -109.6875 146.125 C-110.26322754 146.68171387 -110.83895508 147.23842773 -111.43212891 147.81201172 C-118.1926661 154.34957364 -124.57624997 160.95815749 -130.4140625 168.34765625 C-133.04851347 171.56603192 -135.84326707 174.59275167 -138.6875 177.625 C-143.18127193 182.42335059 -147.40913994 187.36053636 -151.5234375 192.4921875 C-153.7681297 195.22309462 -156.11185828 197.83154731 -158.5 200.4375 C-161.60762889 203.84393936 -164.30162946 207.18312694 -166.6875 211.125 C-163.76915783 209.81016427 -161.73829071 208.40866724 -159.515625 206.11328125 C-158.93296875 205.51966797 -158.3503125 204.92605469 -157.75 204.31445312 C-157.151875 203.69505859 -156.55375 203.07566406 -155.9375 202.4375 C-152.38770569 198.78168307 -148.83927497 195.20465721 -144.96484375 191.890625 C-139.91596796 187.53711433 -135.23310984 182.82060355 -130.53198242 178.09985352 C-128.99575092 176.55823602 -127.45421033 175.02207192 -125.91210938 173.48632812 C-124.91634572 172.48990397 -123.92089214 171.49316981 -122.92578125 170.49609375 C-121.596073 169.1646936 -121.596073 169.1646936 -120.23950195 167.80639648 C-118.40301681 165.87679577 -116.6980059 163.96608573 -115.01416016 161.9128418 C-112.75282919 159.20327849 -110.6712201 157.44748007 -107.75 155.5 C-106.87859375 154.90574219 -106.0071875 154.31148437 -105.109375 153.69921875 C-103.27808089 152.50887758 -101.39866777 151.39213461 -99.5 150.3125 C-95.21090991 146.97654104 -92.61142582 142.65674582 -89.6875 138.125 C-89.16285156 137.34640625 -88.63820313 136.5678125 -88.09765625 135.765625 C-86.25409833 133.02318218 -86.25409833 133.02318218 -84.6875 130.125 C-85.1825 129.135 -85.1825 129.135 -85.6875 128.125 Z M-294.6875 181.125 C-295.50734375 181.87007812 -296.3271875 182.61515625 -297.171875 183.3828125 C-317.78128421 202.77613856 -329.49855362 231.90492534 -330.81640625 259.859375 C-331.46914241 292.06102562 -318.65371189 320.10699895 -296.6875 343.125 C-295.80771484 344.11693359 -295.80771484 344.11693359 -294.91015625 345.12890625 C-281.54724852 359.60295292 -262.31923435 368.81553917 -243.6875 374.125 C-242.57632813 374.44597656 -241.46515625 374.76695312 -240.3203125 375.09765625 C-211.92302315 382.01989798 -182.26374139 375.95464384 -157.46044922 361.22998047 C-130.49909694 344.42647174 -112.52225353 317.53252008 -105.14404297 286.86621094 C-98.28928214 255.51265745 -105.74455546 226.44675774 -121.6875 199.125 C-122.3475 198.135 -123.0075 197.145 -123.6875 196.125 C-126.93957092 197.54238489 -129.00111067 199.25026412 -131.4375 201.8125 C-134.69716396 205.15651755 -138.05723038 208.27764948 -141.59765625 211.3203125 C-144.70911468 214.00721679 -147.75276926 216.76926738 -150.8046875 219.5234375 C-152.6875 221.125 -152.6875 221.125 -154.6875 222.125 C-153.22785177 225.91729181 -151.52855717 229.53534825 -149.75 233.1875 C-142.34070707 249.49156757 -140.30051148 269.62812 -146.30859375 286.8359375 C-146.76363281 287.92132813 -147.21867188 289.00671875 -147.6875 290.125 C-148.08219482 291.0826123 -148.08219482 291.0826123 -148.48486328 292.05957031 C-156.20153198 310.32278962 -169.24689449 323.042359 -187.57519531 330.81787109 C-205.45096052 337.97912324 -224.65926604 338.52647036 -242.59960938 331.36132812 C-250.41451751 327.98431601 -257.21610142 323.63917087 -263.6875 318.125 C-264.6775 317.403125 -265.6675 316.68125 -266.6875 315.9375 C-279.53405445 305.01792872 -287.40104708 287.38888097 -288.89892578 270.78076172 C-290.06090809 250.2274187 -284.98373701 231.74087316 -272.6875 215.125 C-272.21699219 214.46886719 -271.74648438 213.81273437 -271.26171875 213.13671875 C-260.79567676 199.70684186 -242.31436847 190.51146309 -225.6875 188.125 C-209.69082037 186.53126061 -193.666395 188.89672264 -179.6875 197.125 C-179.0275 197.455 -178.3675 197.785 -177.6875 198.125 C-177.17703125 197.49335938 -176.6665625 196.86171875 -176.140625 196.2109375 C-171.16238452 190.08523024 -166.0923884 184.05193244 -160.93847656 178.07373047 C-159.98403905 176.96641629 -159.03118521 175.8577347 -158.08007812 174.74755859 C-157.13098299 173.641723 -156.1763072 172.54065843 -155.21679688 171.44384766 C-152.53924014 168.68179925 -152.53924014 168.68179925 -151.6875 165.125 C-200.21236715 138.10001211 -253.80697387 142.00423162 -294.6875 181.125 Z M-259.68359375 225.3125 C-270.78056466 238.676594 -274.11919107 255.16627842 -272.6875 272.125 C-270.46444539 286.87126225 -262.27496211 299.06714194 -250.90234375 308.4140625 C-238.62365041 317.23885691 -223.76108779 321.31056308 -208.6875 320.125 C-192.21478517 317.39598736 -178.86398203 310.45577144 -168.875 296.61328125 C-160.51260768 283.29617148 -157.27684204 269.74187113 -159.6875 254.125 C-161.54025475 246.51219582 -164.58724918 239.77950542 -168.6875 233.125 C-174.77335207 236.90809723 -180.25520286 241.46405623 -185.6875 246.125 C-186.82832031 246.99898437 -186.82832031 246.99898437 -187.9921875 247.890625 C-190.47893829 251.16809378 -190.19133975 254.4268817 -190.1875 258.375 C-190.43297222 266.0664628 -191.07099019 271.34203995 -196.5546875 277.078125 C-202.70671466 282.78906342 -208.30831328 284.98440962 -216.6875 285.125 C-222.66674951 284.5180837 -228.1959994 282.1270422 -232.6875 278.125 C-237.36891415 271.53162216 -239.60472349 265.20166239 -238.6875 257.125 C-236.16897513 248.66604147 -231.2016141 243.61697733 -223.70703125 239.1953125 C-219.67653618 237.05922807 -216.30195062 235.91948595 -211.7109375 236.50390625 C-208.01260714 236.91531302 -205.31143339 237.03527711 -201.6875 236.125 C-197.22804568 232.4542138 -194.44330847 227.11176768 -191.6875 222.125 C-190.94306641 220.83529297 -190.94306641 220.83529297 -190.18359375 219.51953125 C-188.59833536 216.57547996 -187.6875 214.5015839 -187.6875 211.125 C-213.94230286 198.48022362 -239.88827013 203.61899467 -259.68359375 225.3125 Z M-221.6875 257.125 C-223.01298832 260.56836774 -223.01298832 260.56836774 -222.6875 264.125 C-220.79846223 266.88590136 -219.35410143 267.86861484 -216.25 269.0625 C-212.83824406 269.14571356 -211.37856773 268.17870958 -208.6875 266.125 C-206.26287792 263.70037792 -205.73343443 262.5001312 -205.3125 259.0625 C-205.48965484 256.19811045 -205.48965484 256.19811045 -206.75 254.25 C-212.19512672 251.08831352 -217.39576289 253.13981554 -221.6875 257.125 Z " fill="#000000" transform="translate(445.6875,14.875)"/>
</svg>
