<?xml version="1.0" encoding="UTF-8"?>
<svg version="1.1" xmlns="http://www.w3.org/2000/svg" width="512" height="512">
<path d="M0 0 C2.22094336 -0.00083011 4.44188665 -0.00329485 6.66282654 -0.00730896 C11.30006573 -0.01015586 15.93681897 0.00442723 20.57397461 0.03198242 C26.49395828 0.06608254 32.41307498 0.06002933 38.33310032 0.04131985 C42.91358058 0.03071194 47.49386186 0.0397218 52.07432365 0.05470467 C54.2562291 0.05985776 56.43815557 0.05943991 58.62005806 0.05315971 C85.12153729 0.00549665 85.12153729 0.00549665 96.5302124 11.02120972 C97.81269867 12.3120195 97.81269867 12.3120195 99.12109375 13.62890625 C100.05520081 14.54253937 100.98930786 15.45617249 101.95172119 16.39749146 C105.07801152 19.46104989 108.16651701 22.56138551 111.25390625 25.6640625 C112.38282568 26.79485242 113.51197011 27.92541776 114.6413269 29.05577087 C117.57958739 31.99780688 120.51482961 34.94283552 123.44940186 37.8885498 C126.45790063 40.90737091 129.46931557 43.92328009 132.48046875 46.93945312 C138.36349618 52.83313002 144.24333057 58.72997932 150.12109375 64.62890625 C154.50845824 63.00134299 157.58813867 60.77305516 161.05859375 57.69140625 C165.59588876 53.75670553 170.19013126 49.93770936 174.93359375 46.25390625 C179.43629019 42.75476562 183.88591387 39.20200152 188.29321289 35.58325195 C202.55865303 23.88227233 214.34970908 14.52025722 233.61328125 16.12890625 C243.13373281 17.48594166 251.3814355 22.93311554 257.37109375 30.37890625 C263.71627419 39.4903779 266.28734653 49.68553583 264.49609375 60.69140625 C261.2131995 74.4795621 252.86105793 82.30341412 242.03515625 90.60546875 C237.99961855 93.70269824 234.05758102 96.90727745 230.12109375 100.12890625 C222.29866161 106.51165002 214.37034204 112.75092159 206.41210938 118.96289062 C204.6891323 120.3086595 202.9672379 121.65579404 201.24609375 123.00390625 C200.67576416 123.45048584 200.10543457 123.89706543 199.51782227 124.35717773 C195.64305566 127.40267842 191.81470586 130.50077173 188.00219727 133.6237793 C172.62943383 146.20248447 160.85061646 155.62011419 140.12109375 153.62890625 C128.00990295 151.31104844 119.5653216 142.62767102 111.78857422 133.59521484 C108.58734421 130.03536269 105.2266571 126.66708782 101.828125 123.296875 C101.18153931 122.65310913 100.53495361 122.00934326 99.86877441 121.34606934 C98.28763919 119.77223727 96.70505548 118.19989271 95.12109375 116.62890625 C95.11744812 117.83889282 95.11380249 119.04887939 95.11004639 120.29553223 C95.0730637 131.71292901 95.0152549 143.13005689 94.93719101 154.54724884 C94.89772558 160.41660155 94.86553233 166.28580444 94.85009766 172.15527344 C94.83492521 177.822398 94.80046845 183.48911064 94.75278473 189.15605164 C94.73797714 191.3152864 94.7300531 193.47457998 94.7292099 195.63386536 C94.7268367 198.6645572 94.6997275 201.69411393 94.66699219 204.72460938 C94.67453773 206.05602463 94.67453773 206.05602463 94.68223572 207.41433716 C94.56893901 214.21878244 92.85318139 219.53254026 88.3046875 224.6875 C87.72847656 225.14253906 87.15226563 225.59757813 86.55859375 226.06640625 C85.97980469 226.53949219 85.40101563 227.01257813 84.8046875 227.5 C80.62204079 230.30460534 76.01249815 229.79090654 71.18676758 229.8059082 C70.27259064 229.8124794 69.3584137 229.8190506 68.41653442 229.82582092 C65.38706378 229.84555244 62.35764275 229.85721715 59.328125 229.8671875 C58.292768 229.87126303 57.257411 229.87533855 56.19067955 229.87953758 C50.7090716 229.90039919 45.22748868 229.91469969 39.74584961 229.92407227 C34.09108649 229.93512782 28.43671783 229.96951786 22.782094 230.00924397 C18.42825095 230.03542439 14.07450161 230.04376546 9.72058678 230.04735374 C7.63664783 230.05221716 5.55271299 230.06382412 3.46885109 230.08239174 C0.54638311 230.10680974 -2.37506808 230.10581298 -5.29760742 230.09887695 C-6.57987465 230.11809204 -6.57987465 230.11809204 -7.88804626 230.13769531 C-14.67913715 230.07918946 -19.81275498 228.7300204 -24.68248844 223.80475807 C-29.51891415 217.53944476 -29.72592565 211.70742046 -29.62353516 204.01245117 C-29.63083649 202.77885864 -29.63813782 201.54526611 -29.6456604 200.27429199 C-29.65902571 196.91640264 -29.64575806 193.56075892 -29.61899614 190.20309234 C-29.59623532 186.68026082 -29.6045916 183.15748179 -29.60848999 179.63459778 C-29.61025068 173.72601188 -29.58819582 167.81788725 -29.55126953 161.90942383 C-29.50884327 155.08188695 -29.501938 148.25502282 -29.51439345 141.42738074 C-29.52578278 134.84652478 -29.51449364 128.26590524 -29.49204636 121.68508339 C-29.48276682 118.88888481 -29.48100103 116.0928311 -29.48521805 113.29662132 C-29.48968568 109.39695551 -29.46076639 105.49792966 -29.42822266 101.59838867 C-29.43317749 100.43936539 -29.43813232 99.2803421 -29.4432373 98.0861969 C-29.42198288 96.49456223 -29.42198288 96.49456223 -29.40029907 94.87077332 C-29.39619333 93.94960818 -29.39208759 93.02844305 -29.38785744 92.07936382 C-28.71831035 88.85568191 -27.41264763 87.66788094 -24.87890625 85.62890625 C-21.25326959 84.47178817 -19.61628223 84.29373535 -16.12890625 85.87890625 C-13.87890625 87.62890625 -13.87890625 87.62890625 -11.87890625 90.62890625 C-11.61719322 92.88775158 -11.61719322 92.88775158 -11.60043335 95.58329773 C-11.58926987 96.60553436 -11.57810638 97.627771 -11.56660461 98.6809845 C-11.56444443 99.80163803 -11.56228424 100.92229156 -11.56005859 102.0769043 C-11.55001297 103.25752441 -11.53996735 104.43814453 -11.52961731 105.65454102 C-11.5040035 108.8918717 -11.4871616 112.12910666 -11.47418928 115.36650825 C-11.45856819 118.74982694 -11.43177474 122.13305653 -11.40615845 125.51631165 C-11.35935249 131.92292674 -11.32261723 138.32955856 -11.28948557 144.73625737 C-11.24752947 152.74545688 -11.19215672 160.75455628 -11.13671875 168.76367188 C-11.03787611 183.0520285 -10.95935712 197.34040795 -10.87890625 211.62890625 C17.83109375 211.95890625 46.54109375 212.28890625 76.12109375 212.62890625 C76.13527344 202.58066406 76.14945313 192.53242188 76.1640625 182.1796875 C76.18411417 175.82223978 76.20542161 169.46483759 76.23242188 163.10742188 C76.27506407 153.01177701 76.31250947 142.91630052 76.31665039 132.82055664 C76.31968965 125.46822404 76.3401747 118.11618258 76.38161832 110.76396245 C76.40295384 106.87085189 76.41554632 102.97815528 76.40724754 99.08498573 C76.39971054 95.41987517 76.41551421 91.75560355 76.4491539 88.09064674 C76.46131719 86.10565977 76.44879268 84.12056955 76.43553162 82.1355896 C76.56074867 72.43064954 76.56074867 72.43064954 79.44355774 69.32926941 C83.01510917 67.06116379 84.96556847 66.88684817 89.12109375 67.62890625 C91.86547852 69.63647461 91.86547852 69.63647461 94.12109375 72.62890625 C94.14038086 76.53735352 94.14038086 76.53735352 93.91786194 78.75901794 C93.29174609 85.94169005 94.27053158 91.14373176 98.80517578 96.86279297 C103.7785918 102.42940027 109.21798056 107.4912276 114.68359375 112.56640625 C116.54231352 114.36903208 118.39717088 116.17564949 120.24804688 117.98632812 C132.19070963 130.81101294 132.19070963 130.81101294 148.12109375 136.12890625 C148.88421875 136.13921875 149.64734375 136.14953125 150.43359375 136.16015625 C157.98115072 134.66819731 163.61099744 129.89654414 169.30859375 125.00390625 C170.80979521 123.74051888 172.31241103 122.47881027 173.81640625 121.21875 C174.54891602 120.60370605 175.28142578 119.98866211 176.03613281 119.35498047 C178.86393509 117.01393104 181.75974547 114.78663518 184.68359375 112.56640625 C190.25479929 108.32895566 195.68981184 103.94425565 201.10961914 99.51538086 C205.41066357 96.00542783 209.74501882 92.54476105 214.12109375 89.12890625 C221.27752981 83.53894026 228.33580097 77.82945689 235.35888672 72.07299805 C236.52154187 71.12022647 237.68718016 70.17108207 238.85595703 69.22583008 C243.39059424 65.52457455 245.76192531 62.81264623 246.4375 56.82421875 C246.69522275 50.15668172 246.23443122 45.93294668 242.12109375 40.62890625 C237.49174715 35.66889204 232.91725045 33.91898611 226.12109375 33.62890625 C217.33641002 34.44462688 210.65251941 41.26517801 204.12109375 46.62890625 C202.82226344 47.6830916 201.52276584 48.73645526 200.22265625 49.7890625 C197.51141114 51.98706644 194.8053861 54.19131391 192.1015625 56.3984375 C187.30879507 60.300606 182.4528505 64.11900146 177.578125 67.91796875 C175.15934019 69.8051601 172.76548695 71.71977805 170.3828125 73.65234375 C169.7635791 74.15040527 169.1443457 74.6484668 168.50634766 75.16162109 C167.33296143 76.10617657 166.16425375 77.05658914 165.00146484 78.01416016 C160.77972467 81.3943406 156.38711506 84.36898068 150.86328125 84.80859375 C144.59204762 83.78525437 141.21236644 82.01613599 137.17749023 77.23144531 C132.29509818 71.59637653 127.03351256 66.33715421 121.78125 61.05078125 C121.24602659 60.51148232 120.71080318 59.97218338 120.15936089 59.41654205 C117.33255832 56.56903855 114.50260523 53.7247087 111.67016602 50.8828125 C108.76239461 47.96393301 105.86650606 45.03354785 102.97303104 42.10050583 C100.72765702 39.82891062 98.47336901 37.56631939 96.21664238 35.30600739 C95.14525405 34.22977751 94.07721845 33.15019826 93.01277351 32.06710052 C87.51908209 26.48306711 82.55004558 21.4836163 75.12109375 18.62890625 C74.46109375 18.62890625 73.80109375 18.62890625 73.12109375 18.62890625 C72.5494751 20.15584106 72.5494751 20.15584106 71.96630859 21.71362305 C71.71066132 22.39634781 71.45501404 23.07907257 71.19161987 23.78248596 C70.60698083 25.34383771 70.02245123 26.90523045 69.4380188 28.46665955 C67.78149325 32.89075682 66.12133006 37.31344283 64.45507812 41.73388672 C61.32517589 50.04336655 58.2055095 58.35442617 55.19424438 66.70777893 C53.97350816 70.08919808 52.73731064 73.4648589 51.49932861 76.83999634 C50.91782386 78.43831604 50.34377251 80.03936885 49.77752686 81.64315796 C44.16781302 97.51432527 44.16781302 97.51432527 37.12109375 101.62890625 C32.41667411 102.74510233 27.8453841 102.15369027 23.24609375 100.75390625 C17.38925725 94.89706975 14.77662319 85.54426927 11.94921875 77.90625 C11.5813324 76.92072647 11.21344604 75.93520294 10.83441162 74.91981506 C10.06520183 72.85283237 9.29897974 70.78473555 8.53564453 68.71557617 C7.37131028 65.56699178 6.19004061 62.42510549 5.0078125 59.28320312 C4.2580747 57.2621042 3.50934221 55.240632 2.76171875 53.21875 C2.41071106 52.29037827 2.05970337 51.36200653 1.69805908 50.40550232 C-3.28368107 36.75772289 -3.28368107 36.75772289 -0.50390625 30.56640625 C2.77885562 28.14341535 4.91393886 28.03313835 8.90234375 27.96484375 C12.23999032 28.96378726 13.14824251 30.76752248 15.12109375 33.62890625 C16.51460128 36.60874958 17.63749318 39.67038114 18.7578125 42.76171875 C19.08272171 43.63537079 19.40763092 44.50902283 19.74238586 45.40914917 C20.77327573 48.18756491 21.79102829 50.97058667 22.80859375 53.75390625 C23.50370786 55.63312692 24.19966266 57.51203685 24.89648438 59.390625 C29.70130366 72.36953599 29.70130366 72.36953599 31.12109375 76.62890625 C36.12854878 65.08687793 40.4523723 53.27975259 44.87109375 41.50390625 C46.03899102 38.39496277 47.20750079 35.28625308 48.3772583 32.17800903 C49.10071623 30.25533203 49.823046 28.33223007 50.54412842 26.40866089 C50.86826721 25.54661041 51.19240601 24.68455994 51.52636719 23.79638672 C51.81106873 23.03760223 52.09577026 22.27881775 52.38909912 21.49703979 C53.12109375 19.62890625 53.12109375 19.62890625 54.12109375 17.62890625 C44.61056284 17.64381056 35.10062993 17.68553536 25.59038544 17.76099682 C21.17379538 17.79520943 16.75754913 17.82036783 12.34082031 17.82446289 C8.07406795 17.82875822 3.80809038 17.85732221 -0.4584198 17.90233803 C-2.08175637 17.91527379 -3.70518584 17.91963465 -5.3285675 17.91506004 C-17.57908829 17.66549353 -17.57908829 17.66549353 -27.87890625 23.62890625 C-29.74308423 25.53480767 -29.74308423 25.53480767 -30.91796875 27.640625 C-31.63581543 28.81310791 -31.63581543 28.81310791 -32.36816406 30.00927734 C-32.86670898 30.87375488 -33.36525391 31.73823242 -33.87890625 32.62890625 C-34.4419043 33.58490723 -35.00490234 34.5409082 -35.58496094 35.52587891 C-37.500314 38.81676629 -39.38048719 42.12657912 -41.25390625 45.44140625 C-41.95537656 46.6766326 -42.65720728 47.91165434 -43.359375 49.14648438 C-44.81356193 51.70445621 -46.2662163 54.26328892 -47.71777344 56.82275391 C-51.09034461 62.76640529 -54.48594524 68.69687803 -57.87890625 74.62890625 C-59.21247692 76.96210399 -60.54569104 79.29550538 -61.87890625 81.62890625 C-62.54556634 82.79557667 -63.21223301 83.96224334 -63.87890625 85.12890625 C-64.20890625 85.70640625 -64.53890625 86.28390625 -64.87890625 86.87890625 C-65.87890625 88.62890625 -66.87890625 90.37890625 -67.87890625 92.12890625 C-68.2088559 92.70632065 -68.53880554 93.28373505 -68.87875366 93.87864685 C-69.54592019 95.04618319 -70.2130955 96.21371451 -70.88027954 97.38124084 C-72.53937002 100.28456067 -74.19827809 103.18798436 -75.85693359 106.09155273 C-78.94698507 111.50047441 -82.03830976 116.90864987 -85.13482666 122.31387329 C-86.57824323 124.83368092 -88.02083962 127.35395765 -89.46337891 129.87426758 C-90.46697992 131.62691947 -91.47174899 133.37890235 -92.4765625 135.13085938 C-93.70339254 137.27462371 -94.92607745 139.42076704 -96.14404297 141.56958008 C-97.30208781 143.61172192 -98.47043772 145.64805377 -99.64892578 147.6784668 C-100.19403809 148.63664307 -100.73915039 149.59481934 -101.30078125 150.58203125 C-101.78385742 151.42024414 -102.26693359 152.25845703 -102.76464844 153.12207031 C-105.07211765 158.31337046 -104.77619248 163.54874827 -103.2109375 168.921875 C-101.02849891 174.00152463 -97.70370174 177.02060614 -92.87890625 179.62890625 C-87.10177646 181.55461618 -81.06897685 181.53078244 -75.50390625 178.94140625 C-70.2030814 176.20076702 -67.38295286 171.00470564 -64.53125 165.9609375 C-63.92603516 164.90326172 -63.32082031 163.84558594 -62.69726562 162.75585938 C-61.43737711 160.53568201 -60.17958315 158.3143148 -58.92382812 156.09179688 C-58.31990234 155.03798828 -57.71597656 153.98417969 -57.09375 152.8984375 C-56.548396 151.93526611 -56.00304199 150.97209473 -55.44116211 149.97973633 C-53.87890625 147.62890625 -53.87890625 147.62890625 -50.87890625 145.62890625 C-43.97479666 144.971372 -43.97479666 144.971372 -40.37890625 147.12890625 C-38.24012864 150.6935356 -38.13763477 153.63659606 -38.87890625 157.62890625 C-40.71842072 162.00082642 -43.05180012 166.03728076 -45.44140625 170.12890625 C-46.3550293 171.76279297 -46.3550293 171.76279297 -47.28710938 173.4296875 C-51.86149446 181.43607156 -56.66862617 189.33160871 -64.87890625 194.00390625 C-66.05453125 194.69613281 -66.05453125 194.69613281 -67.25390625 195.40234375 C-76.32731765 199.64200324 -87.14331139 200.08784833 -96.890625 197.9765625 C-107.63065677 194.04810504 -114.71719969 186.68065061 -119.87890625 176.62890625 C-121.92887321 171.69660321 -122.27591284 167.26804934 -122.31640625 162.00390625 C-122.34927734 161.27300781 -122.38214844 160.54210937 -122.41601562 159.7890625 C-122.52854388 147.94290665 -115.35341875 137.51717394 -109.56640625 127.62890625 C-108.85925979 126.40799557 -108.15289734 125.18663051 -107.44726562 123.96484375 C-105.98656179 121.43704851 -104.52256919 118.91120372 -103.05615234 116.38671875 C-99.63211896 110.48553484 -96.25858948 104.55556687 -92.87890625 98.62890625 C-91.54608692 96.29527909 -90.21249566 93.9620934 -88.87890625 91.62890625 C-88.21222534 90.46224772 -87.54555867 89.29558106 -86.87890625 88.12890625 C-82.87890625 81.12890625 -82.87890625 81.12890625 -81.87901306 79.37910461 C-81.21197721 78.21178424 -80.54495452 77.04445636 -79.87794495 75.87712097 C-78.21703423 72.97039427 -76.55584942 70.06382504 -74.89428711 67.1574707 C-71.11458516 60.54573584 -67.34133631 53.9303805 -63.57395935 47.31161499 C-60.58769541 42.06764908 -57.58469838 36.83342585 -54.578125 31.60107422 C-53.10013347 29.01586317 -51.64190571 26.42099516 -50.19140625 23.8203125 C-44.08933432 13.01813439 -37.16281418 4.8535806 -24.94307327 1.09532547 C-16.88885832 -0.7246051 -8.20138168 -0.05567419 0 0 Z " fill="#000000" transform="translate(121.87890625,275.37109375)"/>
<path d="M0 0 C1.020298 -0.00671722 2.04059601 -0.01343445 3.09181213 -0.02035522 C6.45733541 -0.03931841 9.82265907 -0.04325864 13.18823242 -0.04541016 C15.53464336 -0.05183935 17.8810535 -0.0585678 20.22746277 -0.06558228 C25.14417377 -0.07755093 30.06081453 -0.08126353 34.97753906 -0.08007812 C41.2654926 -0.07987499 47.55299391 -0.10717397 53.84084034 -0.14162254 C58.68712924 -0.16390344 63.53330952 -0.16791529 68.37964439 -0.16685867 C70.69719691 -0.16921295 73.01475251 -0.17802661 75.33225441 -0.19352341 C78.57989433 -0.21320624 81.82656184 -0.2073356 85.07421875 -0.1953125 C86.02361328 -0.20655151 86.97300781 -0.21779053 87.95117188 -0.22937012 C95.23737917 -0.1611212 101.33315023 1.49721428 107.03588867 6.18505859 C112.33295786 12.654862 114.88818816 17.48757735 114.79760742 26.02880859 C114.78322632 27.78704956 114.78322632 27.78704956 114.76855469 29.58081055 C114.75622803 30.47501709 114.74390137 31.36922363 114.73120117 32.29052734 C116.01696045 32.26958008 117.30271973 32.24863281 118.62744141 32.22705078 C123.43006103 32.15426274 128.23263256 32.10858704 133.03564453 32.07080078 C135.10831929 32.05077338 137.18093817 32.02354323 139.25341797 31.98876953 C142.24485113 31.93985935 145.23553272 31.91746941 148.22729492 31.89990234 C149.601287 31.86893463 149.601287 31.86893463 151.0030365 31.83734131 C158.30801846 31.83483401 164.40181495 33.49473224 170.07104492 38.25537109 C170.59827148 38.90634766 171.12549805 39.55732422 171.66870117 40.22802734 C172.21397461 40.87642578 172.75924805 41.52482422 173.32104492 42.19287109 C176.18046138 46.44635208 176.98148596 50.10412421 176.98847008 55.193326 C176.99491897 56.38270214 177.00136786 57.57207829 177.00801218 58.79749614 C177.00336637 60.75184802 177.00336637 60.75184802 176.99862671 62.74568176 C177.0023636 64.14673011 177.00696527 65.54777638 177.01235735 66.94881934 C177.02459807 70.79863669 177.02432563 74.64836721 177.0219686 78.49819958 C177.02156071 82.65032806 177.03259699 86.80242859 177.04208374 90.95454407 C177.05870061 99.08933151 177.0641936 107.22408996 177.0653085 115.35889295 C177.06625865 121.97102874 177.07036731 128.58315495 177.07670975 135.1952877 C177.09432407 153.93998617 177.10354833 172.68466173 177.1020488 191.42936853 C177.10196889 192.44001823 177.10188897 193.45066792 177.10180664 194.49194336 C177.10172488 195.50382639 177.10164312 196.51570942 177.10155888 197.55825558 C177.10074594 213.95815026 177.11988518 230.35795312 177.14808337 246.75782124 C177.17680551 263.59520949 177.19062404 280.43255293 177.18889582 297.2699663 C177.18823169 306.72365012 177.19373431 316.17723767 177.21525192 325.63089943 C177.2334549 333.67991281 177.23781834 341.72878628 177.22423308 349.77781133 C177.21769892 353.88415044 177.21760219 357.99022108 177.23493958 362.09653473 C177.25065586 365.85759452 177.24782182 369.61817263 177.23037131 373.37922057 C177.22584521 375.38027084 177.24097009 377.38133596 177.2568506 379.38232833 C177.19374807 387.59603372 176.30119059 393.14240199 170.80151367 399.53271484 C170.15956055 400.07154297 169.51760742 400.61037109 168.85620117 401.16552734 C168.2194043 401.71982422 167.58260742 402.27412109 166.92651367 402.84521484 C162.25600169 405.92010708 157.65255378 406.54209123 152.15219116 406.56468201 C150.84552994 406.57465714 149.53886871 406.58463226 148.19261169 406.59490967 C146.75674451 406.59580531 145.32087716 406.59646896 143.88500977 406.59692383 C142.36353653 406.60455029 140.84206714 406.61297862 139.32060242 406.62214661 C135.19891225 406.64404085 131.07729623 406.65288277 126.95555449 406.65797305 C124.38018766 406.66162032 121.80484018 406.66786206 119.22948074 406.67497444 C110.24469399 406.69944389 101.25996485 406.71251701 92.27514648 406.71606445 C83.89866494 406.71970566 75.52254845 406.74964903 67.1461786 406.79146904 C59.95198666 406.82612869 52.75791609 406.84161208 45.56364119 406.84231049 C41.26764041 406.84310429 36.97201239 406.85189118 32.67609787 406.88030815 C28.6392176 406.90641756 24.60302126 406.9087346 20.56609535 406.89265251 C19.08420258 406.89083274 17.60227106 406.89757641 16.12046242 406.91347122 C14.09915695 406.93383333 12.077595 406.9204276 10.0562439 406.90525818 C8.92470068 406.90726951 7.79315746 406.90928083 6.62732506 406.91135311 C3.73120117 406.29052734 3.73120117 406.29052734 1.367136 403.97476292 C-0.7775548 400.4557625 -0.85845767 398.34443191 -0.26879883 394.29052734 C1.59828622 391.92555295 3.05181548 390.63022019 5.73120117 389.29052734 C7.7008627 389.19107544 9.67393754 389.15707739 11.64610291 389.15249634 C12.90663986 389.147043 14.16717682 389.14158966 15.46591187 389.13597107 C16.87066645 389.13485124 18.2754211 389.13380072 19.68017578 389.1328125 C21.1534185 389.12814545 22.62665977 389.12300206 24.09989929 389.11741638 C27.27671613 389.10612675 30.45352354 389.09769683 33.63035393 389.09129715 C38.65111173 389.08063216 43.6718018 389.06039216 48.69252014 389.03817749 C62.97092595 388.97620012 77.24932781 388.92220621 91.52783203 388.88916016 C99.41039793 388.8708365 107.29285047 388.84193046 115.17533308 388.80115545 C119.34883538 388.78004991 123.52219461 388.76462317 127.6957531 388.76234818 C131.62004776 388.76020654 135.5440444 388.74438727 139.46824837 388.71795845 C140.91021203 388.71074581 142.35221173 388.70867397 143.79418945 388.71206093 C145.7592524 388.71593997 147.72432477 388.69977937 149.6893158 388.68252563 C150.79010436 388.67921549 151.89089293 388.67590534 153.02503872 388.67249489 C155.69465501 388.50842994 155.69465501 388.50842994 157.37674111 387.11326253 C159.25280664 384.58858812 159.10720844 382.87564601 159.10872459 379.74479675 C159.11654784 378.58418637 159.12437108 377.42357599 159.13243139 376.2277956 C159.12573922 374.94678565 159.11904706 373.6657757 159.1121521 372.34594727 C159.11560688 370.97605866 159.12037023 369.60617282 159.12633383 368.23629284 C159.13889838 364.46346503 159.13264885 360.69086383 159.12337518 356.91803503 C159.11660724 352.85253683 159.12705467 348.7870785 159.13531494 344.72158813 C159.14867865 336.75395236 159.14576283 328.7864012 159.13707702 320.81876206 C159.13031123 314.3452626 159.12937895 307.8717869 159.13264847 301.39828491 C159.13333802 300.01806397 159.13333802 300.01806397 159.1340415 298.60995978 C159.13500064 296.74089757 159.13597328 294.87183536 159.13695927 293.00277317 C159.14552089 275.46252609 159.13566694 257.922326 159.11955817 240.38208663 C159.10615429 225.32061886 159.10848216 210.25922043 159.12231445 195.19775391 C159.13835665 177.72173196 159.14469685 160.24575122 159.13547766 142.76972294 C159.13452198 140.90740522 159.13357887 139.0450875 159.13264847 137.18276978 C159.13218564 136.26639227 159.13172281 135.35001476 159.13124596 134.40586823 C159.12865199 127.93759149 159.13303583 121.46934082 159.14008713 115.00106812 C159.14848724 107.12205247 159.14625347 99.24312652 159.1302449 91.3641212 C159.12234203 87.34149915 159.11930469 83.31902684 159.12919235 79.29640579 C159.13809833 75.61762257 159.13327471 71.9391286 159.1172597 68.2603718 C159.1122939 66.291334 159.12214498 64.32227628 159.13243139 62.35325909 C159.12460815 61.19264871 159.1167849 60.03203833 159.10872459 58.83625793 C159.10823754 57.83048612 159.10775048 56.8247143 159.10724866 55.78846455 C158.93112122 53.24498497 158.93112122 53.24498497 157.32743609 51.46883965 C155.30955975 49.97927913 154.1219074 49.89653821 151.62695312 49.8581543 C150.80632889 49.83836014 149.98570465 49.81856598 149.14021301 49.798172 C148.25887192 49.79178207 147.37753082 49.78539215 146.46948242 49.77880859 C145.56368942 49.76085739 144.65789642 49.74290619 143.72465515 49.72441101 C140.83105121 49.67022075 137.93761302 49.63638448 135.04370117 49.60302734 C133.08208952 49.56986195 131.12049977 49.53537302 129.15893555 49.49951172 C124.3498102 49.41448928 119.54073476 49.34771975 114.73120117 49.29052734 C114.74562256 50.39444824 114.76004395 51.49836914 114.77490234 52.63574219 C114.70119415 58.80005285 112.29472681 63.43898383 108.35620117 68.10302734 C103.25863547 72.35099876 99.06950702 75.40089631 92.32417297 75.43769836 C90.97223595 75.44843132 90.97223595 75.44843132 89.59298706 75.4593811 C88.60646149 75.46207001 87.61993591 75.46475891 86.60351562 75.4675293 C85.56254227 75.47410049 84.52156891 75.48067169 83.4490509 75.48744202 C79.99752736 75.50718278 76.54604737 75.51883997 73.09448242 75.52880859 C71.32631196 75.53492188 71.32631196 75.53492188 69.52242088 75.54115868 C63.28220164 75.56202365 57.04200441 75.57632302 50.80175781 75.58569336 C44.36007251 75.596753 37.91873309 75.63114702 31.47716999 75.67086506 C26.52112695 75.69702743 21.56516631 75.70538494 16.60906029 75.70897484 C14.23485162 75.71384246 11.86064668 75.72546137 9.48650551 75.74401283 C6.15934592 75.76839312 2.83308119 75.7674407 -0.49414062 75.76049805 C-1.47054504 75.77330811 -2.44694946 75.78611816 -3.45294189 75.79931641 C-11.12103633 75.74114905 -16.33444001 73.89884629 -22.08129883 68.79052734 C-27.87191171 62.17268405 -29.57844151 56.78961223 -29.60473633 47.92724609 C-29.61139313 47.13582718 -29.61804993 46.34440826 -29.62490845 45.52900696 C-29.63499326 43.86075143 -29.63972676 42.1924559 -29.6394043 40.52416992 C-29.64376828 37.99572922 -29.68010422 35.46904943 -29.71801758 32.94091797 C-29.78796591 23.20600038 -29.63534368 15.49068531 -23.12036133 7.73193359 C-22.3855957 7.11189453 -21.65083008 6.49185547 -20.89379883 5.85302734 C-20.16418945 5.21494141 -19.43458008 4.57685547 -18.68286133 3.91943359 C-12.77378004 -0.06776203 -6.87182176 -0.00651872 0 0 Z M-10.26879883 19.29052734 C-13.6251783 23.96603117 -12.60255885 30.21692892 -12.58447266 35.70776367 C-12.58131407 37.71832574 -12.60478499 39.72741274 -12.63012695 41.73779297 C-12.63077148 43.01203125 -12.63141602 44.28626953 -12.63208008 45.59912109 C-12.63506104 46.76241943 -12.63804199 47.92571777 -12.64111328 49.12426758 C-12.23078711 52.61378895 -11.35862986 54.49379019 -9.26879883 57.29052734 C-7.00527625 58.42228863 -5.77113498 58.4207374 -3.25881958 58.43096924 C-2.42043549 58.43667938 -1.58205139 58.44238953 -0.71826172 58.44827271 C0.2033374 58.44939056 1.12493652 58.45050842 2.07446289 58.45166016 C3.04368683 58.45662506 4.01291077 58.46158997 5.01150513 58.46670532 C8.22797345 58.48134845 11.44439245 58.48813235 14.66088867 58.49365234 C16.89047243 58.4994018 19.12005617 58.50515956 21.34963989 58.51092529 C26.02874991 58.52144125 30.70784271 58.5272801 35.38696289 58.53076172 C41.3884602 58.53624922 47.38973095 58.56028035 53.39115715 58.58873367 C57.99790109 58.60733847 62.60459022 58.61256449 67.21136856 58.6140976 C69.42419804 58.61712928 71.63702645 58.62517505 73.84981918 58.63828278 C76.94310599 58.65529881 80.03583603 58.65347384 83.12915039 58.64697266 C84.04670105 58.65618744 84.96425171 58.66540222 85.90960693 58.67489624 C90.78048112 58.65590377 90.78048112 58.65590377 95.26882935 56.95574951 C99.22401465 52.45192762 97.91718276 45.50993208 97.91650391 39.89379883 C97.91868966 37.8637188 97.93685714 35.83418311 97.95581055 33.80419922 C97.95774414 32.52222656 97.95967773 31.24025391 97.96166992 29.91943359 C97.96577881 28.74453369 97.9698877 27.56963379 97.97412109 26.35913086 C97.73591578 23.35008301 97.48608187 21.72017544 95.73120117 19.29052734 C92.91566809 17.59925965 90.82325191 17.04001086 87.55664062 17.03656006 C86.73233551 17.03092041 85.9080304 17.02528076 85.05874634 17.01947021 C83.7151857 17.02554291 83.7151857 17.02554291 82.34448242 17.03173828 C81.39447357 17.02823364 80.44446472 17.024729 79.46566772 17.02111816 C76.32493791 17.01231466 73.18443329 17.0181452 70.04370117 17.02490234 C67.86181597 17.0235553 65.67993105 17.02161444 63.49804688 17.019104 C58.92501976 17.01615461 54.35207077 17.02044451 49.77905273 17.02978516 C43.91441123 17.04117953 38.04995278 17.03461908 32.18531799 17.02264023 C27.67979551 17.01541669 23.17431651 17.01771185 18.66879272 17.02289581 C16.50621519 17.02423094 14.34363373 17.02258938 12.18106079 17.01793671 C9.15990732 17.01286344 6.13905122 17.02059315 3.11791992 17.03173828 C1.77435928 17.02566559 1.77435928 17.02566559 0.40365601 17.01947021 C-0.83280167 17.02792969 -0.83280167 17.02792969 -2.09423828 17.03656006 C-3.16494316 17.03769114 -3.16494316 17.03769114 -4.25727844 17.03884506 C-6.63016317 17.3357414 -8.22600926 18.06294582 -10.26879883 19.29052734 Z " fill="#000000" transform="translate(335.268798828125,6.70947265625)"/>
<path d="M0 0 C11.59814226 8.79801934 20.99257721 20.70002892 23.71875 35.30078125 C25.52212776 52.60819835 22.99866225 67.99168864 12.3125 82.125 C1.30459715 95.25615003 -12.55880521 101.55813344 -29.50390625 103.25 C-43.9474925 103.66341213 -58.35010381 98.71853645 -69 89 C-69.69867188 88.38125 -70.39734375 87.7625 -71.1171875 87.125 C-80.91165347 77.95885827 -87.02155599 65.4536051 -88 52 C-88.06316406 51.23945313 -88.12632813 50.47890625 -88.19140625 49.6953125 C-88.90238922 34.23716658 -83.31260096 19.99616888 -73.4375 8.3125 C-53.70352748 -12.33590174 -23.82733945 -14.62132194 0 0 Z M-62.0625 22.375 C-64.09897538 24.59032972 -64.09897538 24.59032972 -64 26 C-42.88 26 -21.76 26 0 26 C-4.14139627 17.71720746 -12.12168401 12.08714307 -20.8125 9.125 C-36.72680039 5.01729032 -51.43062857 10.02064661 -62.0625 22.375 Z M-70 43 C-71.70689311 53.24135864 -68.97492602 62.00605503 -63.07421875 70.4921875 C-55.64591496 79.47330056 -46.41802213 84.27599144 -34.9375 85.875 C-24.31491862 86.52741051 -14.2391555 82.86153175 -5.859375 76.33203125 C1.23979927 69.5878157 5.45031947 61.68865304 7 52 C7 49.03 7 46.06 7 43 C-18.41 43 -43.82 43 -70 43 Z " fill="#000000" transform="translate(183,156)"/>
<path d="M0 0 C4 5 4 5 4 30 C43.6 30 83.2 30 124 30 C124 21.75 124 13.5 124 5 C128 0 128 0 130.9375 -1 C134.5835398 -1 136.11381662 -0.16463754 139 2 C141 4 141 4 141.22705078 6.61376953 C141.21134033 8.2319458 141.21134033 8.2319458 141.1953125 9.8828125 C141.18564453 11.63271484 141.18564453 11.63271484 141.17578125 13.41796875 C141.15064453 15.25294922 141.15064453 15.25294922 141.125 17.125 C141.11597656 18.35605469 141.10695313 19.58710938 141.09765625 20.85546875 C141.07402548 23.90383815 141.04108054 26.95182382 141 30 C141.88042969 29.96519531 142.76085937 29.93039063 143.66796875 29.89453125 C144.82941406 29.86746094 145.99085938 29.84039062 147.1875 29.8125 C148.33605469 29.77769531 149.48460937 29.74289063 150.66796875 29.70703125 C154.3044035 30.02676467 156.1105914 30.81841727 159 33 C160.56471233 36.12942465 160.69701958 39.61082223 160 43 C158.46484375 45.2421875 158.46484375 45.2421875 156 47 C153.26317029 47.2911521 150.96059961 47.38322418 148.25 47.25 C147.55261719 47.23195312 146.85523438 47.21390625 146.13671875 47.1953125 C144.42388461 47.14838554 142.71176176 47.07664605 141 47 C141.02094727 47.76143311 141.04189453 48.52286621 141.06347656 49.30737305 C141.14677795 52.76728032 141.19870584 56.22697638 141.25 59.6875 C141.28351563 60.88568359 141.31703125 62.08386719 141.3515625 63.31835938 C141.36445313 64.47529297 141.37734375 65.63222656 141.390625 66.82421875 C141.41157227 67.88729248 141.43251953 68.95036621 141.45410156 70.0456543 C140.88861584 73.72465578 139.58062111 75.36901804 137 78 C134.78125 78.6640625 134.78125 78.6640625 132.5 78.625 C131.37078125 78.64433594 131.37078125 78.64433594 130.21875 78.6640625 C128 78 128 78 124 73 C124 64.42 124 55.84 124 47 C84.4 47 44.8 47 4 47 C4 55.58 4 64.16 4 73 C0 78 0 78 -2.21875 78.6640625 C-2.9715625 78.65117187 -3.724375 78.63828125 -4.5 78.625 C-5.2528125 78.63789063 -6.005625 78.65078125 -6.78125 78.6640625 C-10.0922789 77.67308554 -11.11643536 75.84119778 -13 73 C-13.45410156 70.0456543 -13.45410156 70.0456543 -13.390625 66.82421875 C-13.37128906 65.08881836 -13.37128906 65.08881836 -13.3515625 63.31835938 C-13.31804687 62.12017578 -13.28453125 60.92199219 -13.25 59.6875 C-13.23195313 58.46998047 -13.21390625 57.25246094 -13.1953125 55.99804688 C-13.14825131 52.99789578 -13.0825131 49.99935111 -13 47 C-14.03640625 47.04640625 -15.0728125 47.0928125 -16.140625 47.140625 C-17.51038779 47.17815275 -18.88018182 47.21455184 -20.25 47.25 C-21.27287109 47.30027344 -21.27287109 47.30027344 -22.31640625 47.3515625 C-25.7368634 47.41797914 -27.64439031 47.25594838 -30.453125 45.234375 C-32.52920228 42.23559671 -32.57003517 40.44649571 -32.3984375 36.90234375 C-31.79104423 34.00233861 -30.33500208 32.71691329 -28 31 C-25.11584117 29.55792059 -22.58278472 29.90605113 -19.375 29.9375 C-18.18648438 29.94652344 -16.99796875 29.95554688 -15.7734375 29.96484375 C-14.85820312 29.97644531 -13.94296875 29.98804688 -13 30 C-13.02094727 29.23333008 -13.04189453 28.46666016 -13.06347656 27.67675781 C-13.14665158 24.2013054 -13.19866575 20.72606237 -13.25 17.25 C-13.28351563 16.0434375 -13.31703125 14.836875 -13.3515625 13.59375 C-13.36445313 12.43359375 -13.37734375 11.2734375 -13.390625 10.078125 C-13.41157227 9.00981445 -13.43251953 7.94150391 -13.45410156 6.84082031 C-12.88736922 3.29539151 -11.79885061 2.1771646 -9 0 C-5.39297148 -1.20234284 -3.64185324 -1.0405295 0 0 Z " fill="#000000" transform="translate(314,132)"/>
<path d="M0 0 C1.19302734 -0.020625 2.38605469 -0.04125 3.61523438 -0.0625 C4.76185547 -0.06765625 5.90847656 -0.0728125 7.08984375 -0.078125 C8.66366821 -0.09214355 8.66366821 -0.09214355 10.26928711 -0.10644531 C13.43259171 0.29722786 14.77616649 1.06939482 17.0625 3.25 C18.12628903 5.89839143 18.31128035 8.41390399 18.0625 11.25 C16.29785939 14.10993478 15.06684303 15.74782849 12.0625 17.25 C10.50407857 17.36664236 8.94135337 17.42866104 7.37890625 17.4609375 C5.98768555 17.50347656 5.98768555 17.50347656 4.56835938 17.546875 C2.61021536 17.59884963 0.65185232 17.64315332 -1.30664062 17.6796875 C-2.69979492 17.72609375 -2.69979492 17.72609375 -4.12109375 17.7734375 C-4.97243896 17.79325684 -5.82378418 17.81307617 -6.70092773 17.83349609 C-9.45244686 18.34589557 -10.20242012 19.09121866 -11.9375 21.25 C-12.23181687 24.34876441 -12.34014342 27.2467274 -12.31604004 30.34677124 C-12.32057017 31.28910728 -12.3251003 32.23144332 -12.3297677 33.202335 C-12.34143565 36.37379819 -12.33172688 39.54484318 -12.32226562 42.71630859 C-12.32636872 44.98447442 -12.33182803 47.25263814 -12.33854675 49.52079773 C-12.35029324 54.41210623 -12.3527484 59.30330183 -12.34819031 64.19462204 C-12.34139839 71.92543072 -12.35721822 79.65609002 -12.37658691 87.38687134 C-12.40161696 98.22308536 -12.41834148 109.05926854 -12.42626953 119.89550781 C-12.4270303 120.92724375 -12.4270303 120.92724375 -12.42780644 121.97982283 C-12.43133328 126.86154837 -12.43446247 131.74327413 -12.4375 136.625 C-12.44096826 142.19791688 -12.44461756 147.77083356 -12.44873047 153.34375 C-12.44948439 154.37332119 -12.44948439 154.37332119 -12.45025355 155.42369179 C-12.4589969 166.86747671 -12.47955536 178.31120204 -12.50821257 189.75495589 C-12.52660327 197.44329497 -12.53044871 205.1314643 -12.52327728 212.81982017 C-12.52175809 217.60011901 -12.53252267 222.38033254 -12.54665565 227.16060829 C-12.55066683 229.38061133 -12.54951885 231.60063047 -12.54288292 233.82062721 C-12.53453012 236.84704829 -12.54445911 239.87287634 -12.55895996 242.89926147 C-12.55206603 243.78145996 -12.54517209 244.66365845 -12.53806925 245.57259023 C-12.59368757 251.51556053 -13.62540527 254.93790527 -17.9375 259.25 C-22.05209835 259.71580359 -24.24078134 259.67408962 -27.8125 257.5 C-30.82638374 254.30882898 -31.0617223 251.51625802 -31.06613445 247.24059868 C-31.0693589 246.44807068 -31.07258335 245.65554268 -31.0759055 244.83899868 C-31.0743569 243.97422598 -31.0728083 243.10945328 -31.07121277 242.21847534 C-31.07347833 241.29514691 -31.07574388 240.37181849 -31.07807809 239.42051041 C-31.08442011 236.31922738 -31.08358858 233.21798803 -31.08276367 230.11669922 C-31.08575511 227.89590905 -31.0891576 225.6751194 -31.09294128 223.45433044 C-31.10178888 217.4148295 -31.10411977 211.37534273 -31.10475707 205.33583593 C-31.10570606 200.29384528 -31.10938441 195.25185793 -31.11292917 190.20986855 C-31.12061166 178.99076792 -31.12359753 167.77167398 -31.12292381 156.55257152 C-31.12288386 155.87941237 -31.1228439 155.20625322 -31.12280273 154.51269531 C-31.12276185 153.83871087 -31.12272097 153.16472643 -31.12267885 152.47031821 C-31.1222728 141.55858339 -31.13183165 130.64688314 -31.1459411 119.73515831 C-31.16032417 108.52299862 -31.16702727 97.31085524 -31.16634732 86.09868443 C-31.16609253 79.80727856 -31.16893345 73.51591178 -31.17952538 67.22451401 C-31.18922125 61.30332846 -31.18927525 55.38221923 -31.18200874 49.46103096 C-31.18096463 47.29149959 -31.18331548 45.12196344 -31.1893692 42.95244026 C-31.19711689 39.98267996 -31.19242585 37.01318141 -31.18473816 34.04342651 C-31.18988172 33.19203814 -31.19502529 32.34064977 -31.20032471 31.46346176 C-31.14462282 21.67462713 -29.98987667 13.46265796 -22.9375 6.25 C-15.52088503 -0.06669326 -9.36122464 0.04032838 0 0 Z " fill="#000000" transform="translate(273.9375,38.75)"/>
<path d="M0 0 C2.875 1.9375 2.875 1.9375 5 5 C5 7.97 5 10.94 5 14 C19.52 14 34.04 14 49 14 C49 11.03 49 8.06 49 5 C51.125 1.9375 51.125 1.9375 54 0 C57.87440468 -0.55348638 60.78044012 -0.29968563 64 2 C66.77635896 5.60926665 66.14475788 9.65726346 66 14 C67.1446875 14.1546875 67.1446875 14.1546875 68.3125 14.3125 C72.3772242 15.35231317 72.3772242 15.35231317 74 18 C74.39189103 22.11485579 74.61831894 24.73081902 72.8125 28.4375 C70.58633099 30.35661121 68.88949684 30.68762196 66 31 C66.103125 32.216875 66.20625 33.43375 66.3125 34.6875 C66.29408036 38.14425282 66.02409685 38.96385473 64 42 C59.84437903 44.77041398 57.93332128 44.70476018 53 44 C50.5 42.5625 50.5 42.5625 49 40 C49 37.03 49 34.06 49 31 C34.48 31 19.96 31 5 31 C5 33.97 5 36.94 5 40 C3.5 42.5625 3.5 42.5625 1 44 C-3.93332128 44.70476018 -5.84437903 44.77041398 -10 42 C-12.68652977 37.97020535 -12.40344574 35.76065969 -12 31 C-12.94875 30.731875 -13.8975 30.46375 -14.875 30.1875 C-18 29 -18 29 -20 26 C-20.67065868 18.95808383 -20.67065868 18.95808383 -18.25 15.5 C-16 14 -16 14 -12 14 C-12.04125 12.7625 -12.0825 11.525 -12.125 10.25 C-12.11349314 6.99355798 -12.05079997 4.66603996 -10 2 C-6.78044012 -0.29968563 -3.87440468 -0.55348638 0 0 Z " fill="#000000" transform="translate(351,234)"/>
</svg>
